<?xml version="1.0" encoding="utf-8"?>
<!-- Generator: Adobe Illustrator 23.1.0, SVG Export Plug-In . SVG Version: 6.00 Build 0)  -->
<svg version="1.1" id="Layer_1" xmlns="http://www.w3.org/2000/svg" xmlns:xlink="http://www.w3.org/1999/xlink" x="0px" y="0px"
	 viewBox="0 0 765.1 765.1" style="enable-background:new 0 0 765.1 765.1;" xml:space="preserve">
<g>
	<path style="fill:#492532;" d="M493.3,286.3c-0.8,2.8-1.5,5.7-2.4,8.5c-1.1,3.6-3.3,4.6-6.6,2.9c-10.2-4.9-17.6-12.3-19.4-24
		c-1.1-7.2,0.7-13.9,4.3-20.1c1.4-2.4,3.4-2.9,6.2-1.4c9.2,5.1,15.4,12.5,17.5,23c0.1,0.5-0.1,1.1,0.5,1.3
		C493.3,279.8,493.3,283.1,493.3,286.3z M485.2,281.4c-0.1-7.5-3.5-14.6-8.9-18.8c-1.4-1.1-2-1-2.5,0.8c-3.1,9.9,0.9,18,9.1,24
		c1.2,0.8,1.6,0.5,1.7-0.8C484.8,284.8,485,283.1,485.2,281.4z"/>
	<path style="fill:#492532;" d="M445.3,231.7c3-4.1,5.1-8.2,7.1-12.5c0.9-1.9,2.4-2.9,4.5-2.6c1.9,0.3,3,1.5,3.4,3.4
		c0.3,1.2-0.3,2.2-0.7,3.2c-4,9-9.4,17.1-16.3,24c-1.8,1.8-1.2,2.4,0.6,3.3c2.8,1.3,5.6,2.4,8.7,3.1c1.5,0.4,2.2,0,2.7-1.6
		c2.6-8.4,7-15.7,13.2-21.9c2.4-2.4,4.6-2.6,6.5-0.8c1.8,1.8,1.7,4.2-0.6,6.5c-4.9,5-8.6,10.8-11,17.6c2.4,0.3,4.2-0.7,6.2-1.3
		c1.1-0.3,2.1-0.8,3.1-1.2c2.3-0.8,4.4,0,5.4,2.1s0.2,4.3-2,5.4c-7.1,3.5-14.6,4.8-22.4,3.8c-6.2-0.8-11.9-3-17.1-6.5
		c-1.1-0.8-1.9-0.8-2.9,0.1c-0.6,0.5-1.2,1-1.9,1.3c-4.8,2-6.4,5.6-7.1,10.8c-1.8,14.2-6.8,27.6-12,40.9c-0.4,1-0.8,2-1.3,3.3
		c4,0.3,7.8,0.1,11.5-0.4c1.2-0.2,1-1.2,1.2-2c1.9-8,5.7-15.2,10.9-21.5c2.3-2.8,6-2.4,7.3,0.7c0.8,2-0.1,3.5-1.3,4.9
		c-3.4,4.1-6,8.7-7.7,13.8c-0.2,0.6-0.8,1.3-0.3,1.9c0.5,0.5,1.3,0.1,1.9-0.1c3.5-1,7.1-2,10.6-3c2.9-0.9,4.7-0.4,5.8,1.7
		c1.2,2.3,0.2,4-1.6,5.6c-0.8,0.7-2.3,1.3-1.9,2.4c0.3,0.9,1.9,0.9,3,1.1c3,0.6,6,0,8.9-0.5c0.8-0.2,1.7-0.4,2.5-0.5
		c2.3-0.2,3.8,0.9,4.4,3.1c0.6,1.9-0.5,4.2-2.5,4.7c-7.8,2-15.5,3-22.6-2.1c-1.2-0.9-1.8-0.2-2.7,0.3c-8,5.3-16.4,9.4-25.9,11.3
		c-3.3,0.7-6.6,1-9.9,0.9c-1,0-1.8-0.1-2.3,1c-4.5,9.3-9.7,18.2-13.3,27.9c-0.6,1.7-0.1,2,1.4,2.2c20.2,1.4,40.1,0,59.3-7.1
		c7.4-2.7,14.3-6.4,20.6-11.2c1.1-0.8,2.2-1.7,3.7-1.5c1.7,0.2,3,1.1,3.6,2.8c0.6,1.9,0,3.4-1.5,4.6c-3.4,2.7-7.1,5.1-10.9,7.2
		c-0.7,0.4-1.4,0.8-2.5,1.4c7.2,1.8,14.1,2.1,21.1,1.5c2.5-0.2,5.1-0.6,7.6-1c2.6-0.3,4.6,1,5,3.3c0.4,2.2-1,4.3-3.6,4.7
		c-13.3,2.4-26.5,2.2-39.3-2.8c-1.5-0.6-2.8-0.7-4.4-0.1c-7.4,2.6-15.1,4.4-22.9,5.4c-1.1,0.1-2.1,0.5-3.2,1
		c-7.5,3.8-14.9,7.5-22.4,11.4c-14.2,7.4-22.1,21.7-20.2,36.9c1,7.8,5.2,14.2,9.9,20.2c8,10.1,17.5,18.2,29.7,22.8
		c3.1,1.2,6.4,1.9,9.7,2.2c3.1,0.2,4.7,1.8,4.5,4.4c-0.1,2.5-1.7,3.8-4.8,3.8c-40,0-80,0-120,0c-1.9,0-3.4-0.4-4.3-2.2
		c-0.9-1.8-0.4-3.4,0.8-5c2.2-3,4.5-6.1,6.6-9.2c4.5-6.6,6.9-13.9,6.7-21.9c-0.3-16.3,3.4-31.8,9.5-46.8c0.7-1.6,0.6-2.7-0.6-4.1
		c-1.3-1.6-2.4-3.5-3.4-5.4c-0.7-1.3-1.4-1.7-2.8-1.5c-4.3,0.6-8.7,0.4-13-0.3c-1.7-0.3-3.2,0.4-4.7,1.1c-3.9,1.8-7,4.5-10,7.5
		c-1.9,1.9-4.2,2-5.9,0.5c-1.8-1.6-1.9-4-0.1-5.9c2.2-2.4,4.6-4.6,7.3-6.4c1.5-1,1.2-1.4-0.1-2.2c-2.9-1.9-5.3-4.4-7.2-7.2
		c-1.8-2.5-1.6-4.8,0.4-6.3s4.4-0.9,6.2,1.4c6.1,8.2,14.6,10.5,24.2,9.9c1.1-0.1,1.9,0,1.5-1.7c-3.3-12.6-3.2-25.4-2-38.2
		c0.1-1.5,0.1-2.2-1.7-2.5c-6.1-1.1-10.7-4.7-14.4-9.6c-3.3-4.4-5.4-9.3-6.9-14.5c-0.7-2.5,0.4-4.5,2.7-5.3c2.1-0.7,4.3,0.4,5.1,2.7
		c1.2,3.7,2.6,7.4,4.8,10.7c2.5,3.7,5.5,6.7,10.1,7.8c1.3,0.3,1.8,0.2,2-1.3s0.5-3,0.8-4.5c0.6-2.8,2.4-4.3,4.8-3.9s3.6,2,3.4,4.8
		c-0.3,5.2-0.2,10.4,1.7,15.6c3.8-3.8,6.5-8.1,8.4-12.9c0.2-0.5,0.3-1,0.5-1.4c1.1-2.6,3.2-3.7,5.4-2.9c2.3,0.9,3.2,3,2.3,5.7
		c-1.5,4.6-3.9,8.7-6.7,12.6c-1.6,2.1-3.3,4.2-5.3,5.9c-1.1,1-1.3,1.7-0.5,3c2.2,3.8,4.7,7.5,7.8,11c3.8-7,8-13.5,12.7-19.7
		c5.9-7.7,12.7-14.5,19.6-21.3c1.1-1.1,1.4-1.7,0.1-2.9c-5.1-4.9-9.1-10.7-12-17.1c-0.8-1.7-1.6-2.3-3.6-2.3
		c-13.7,0-25.9-3.9-35.4-14.4c-0.9-1-1.8-2.1-2.5-3.2c-1.1-1.9-0.7-3.7,0.9-5.1c1.7-1.4,3.6-1.3,5.4,0.1c0.3,0.3,0.6,0.6,0.9,0.9
		c7.3,9.2,17.3,12.6,28.5,13.4c1.7,0.1,1.9-0.5,1.5-1.9c-3.6-15.3-1.6-30.2,3.1-44.9c0.9-2.8,2.6-4,4.8-3.6c2.3,0.4,3.5,2,3.5,4.9
		c0.1,8.5,1.1,16.9,3.1,25.1c0.2,0.7,0.4,1.4,0.7,2.4c3.8-2.4,6.8-5.3,8.8-9.3c0.7-1.3,1.4-2.6,2.9-3.1c1.6-0.5,3.1-0.1,4.2,1
		c1.3,1.3,1.5,2.9,0.8,4.5c-1.9,4.4-4.8,8-8.5,11.1c-0.7,0.6-1.5,1.1-2.3,1.7c-3.4,2.4-3.4,2.4-1.5,6.2c3,6.1,6.9,11.6,12.5,15.6
		c0.8,0.5,1.4,1.4,2.5,0.1c8.4-10.7,16.3-21.7,21.1-34.6c1.6-4.4,2.6-8.8,2.6-13.5c0-2.4,0.8-4.2,3.3-4.7c2.6-0.5,4,0.9,4.9,3.1
		c1,2.5,1.7,5.2,1.8,8c0.1,1.3,0.4,1.7,1.7,0.8c3.9-2.8,7.5-6,10.8-9.4c0.8-0.8,0.7-1.6,0.4-2.5c-1.2-3.8-2.2-7.7-3.3-11.6
		c-0.7-2.7,0.3-4.8,2.7-5.5c2.3-0.7,4.3,0.5,5.2,3.3C443.8,226.8,444.5,229.1,445.3,231.7z M386.7,299.3c-0.2-0.2-0.4-0.3-0.5-0.5
		c-11.8-8-17.7-19.9-21.9-33c-0.4,4.4,0.3,8.7,1.4,12.8c2.8,10.6,7.7,19.9,16.4,26.8c3.9,3.1,4.1,5.1,0.6,8.8
		c-5.6,5.8-11.5,11.2-16.7,17.3c-5.6,6.4-10.7,13-14.7,20.5c-1.5,2-2.6,4.2-3.6,6.4c-2.5,5.5-4.6,8.1-10.6,2.2
		c-4.5-5.3-8.7-10.8-12.1-16.9c-0.4,10.2,0.4,20.2,4.1,29.7c1.4,3.6,3.4,6.9,6,9.8c2.7,3,2.8,3.6,1.2,7.3
		c-6.5,14.9-10.4,30.3-10.1,46.6c0.2,8.7-2.2,16.9-6.8,24.3c-1.1,1.8-2.2,3.5-3.5,5.6c3.7,0,7,0,10.3,0c23.4,0,46.9,0,70.3,0
		c2.3,0,4.5,0,7.4,0c-1-0.7-1.3-1-1.7-1.3c-7.6-5.3-14.4-11.5-19.9-18.9c-7.6-10.2-13.5-20.9-11.4-34.3c0.8-5.5,2.3-10.8,5-15.7
		c4.9-9,12.1-15.7,21.5-20c1.4-0.6,2.6-1.5,4-2.2c-0.1-0.1-0.1-0.3-0.2-0.4c-1.9,0-3.7,0-5.6,0c-4.7-0.6-9.4-0.6-14-1.4
		c-2.2-0.4-3.6-1.2-4.4-3.2c0-0.9,0.1-1.7,0.4-2.5c3-8.7,6.3-17.2,10.8-25.3c2.1-3.8,4.2-7.6,5.7-11.7c1.4-3.7,4.3-4.6,8-4.1
		c2.6,0.3,5.3,0.1,7.9-0.5c5.4-1.2,10.6-2.7,16-5.5c-1.1,0-1.6-0.1-2,0c-5.9,0.8-11.7,0.8-17.5-0.1c-3.8-0.6-4.4-1.4-4.8-5.1
		c0.3-0.9,0.6-1.8,0.9-2.6c5.3-12.2,9.8-24.7,12.9-37.6c0.2-0.7,0.4-1.4-0.3-2.4c-5.6,9.9-12.2,18.6-19,27.2c-2.3,2.5-3.9,2.8-6.9,1
		C388.2,300,387.4,299.7,386.7,299.3L386.7,299.3z M363.8,264.3c0,0.1,0,0.3,0,0.4c0-0.1,0.1-0.1,0.1-0.2
		C363.9,264.4,363.9,264.3,363.8,264.3z M415.7,271.1c0-0.1-0.1-0.1-0.1-0.2l-0.1,0.1c0,0.1,0.1,0.1,0.2,0.2
		C415.7,271.2,415.7,271.2,415.7,271.1z"/>
	<path style="fill:#492532;" d="M441.9,216.5c0.1,2.1-0.2,4.8-0.7,7.5c-0.6,3.3-2.8,4.7-5.9,3.7c-11.8-3.7-20.6-10.6-23.4-23.3
		c-1.4-6.2-0.5-12.2,1.8-18.1c1-2.7,3-3.4,6.1-2.4C433.5,188.7,442,200.8,441.9,216.5z M433.7,214.4c-0.4-8.8-4.2-15.7-11.7-20.4
		c-1.3-0.8-2-0.9-2.3,1c-1.4,8.9,2.1,16.3,10.4,21.3c1,0.6,2.1,1.9,3.1,1.4C434.2,217.1,433.5,215.5,433.7,214.4z"/>
	<path style="fill:#492532;" d="M332.9,228c11.8,0,22.6,7.3,27.1,18.5c1.1,2.6,0.4,4.5-2.3,5.9c-10.6,5.5-21,4.9-31.3-0.9
		c-5.2-3-9.3-7.2-12.7-12.1c-1.8-2.6-1.3-4.9,1.4-6.5C320.3,229.9,327,228,332.9,228z M323.5,238.5c6.8,7.4,14.7,11,24.6,8.9
		c2.9-0.6,2.9-0.8,1.2-3.1C343.2,236.4,333.2,234.1,323.5,238.5z"/>
	<path style="fill:#D0BCFF;" d="M485.2,281.4c-0.2,1.7-0.4,3.4-0.6,5.1c-0.1,1.3-0.6,1.7-1.7,0.8c-8.2-6-12.2-14.1-9.1-24
		c0.6-1.8,1.1-1.9,2.5-0.8C481.7,266.8,485.1,273.9,485.2,281.4z"/>
	<path style="fill:#B66B6B;" d="M376.9,369.6c0.8,2,2.3,2.8,4.4,3.2c4.7,0.8,9.4,0.8,14,1.4c-5,2.6-9.9,5.2-14.9,8
		c-6.9,3.8-12.3,9.3-16.2,16.2c-3.3,5.7-5,12-5.2,18.5c-0.1,4-0.3,8.3,1.5,12c4.2,8.4,9.7,16,16.1,22.9c5.7,6.2,12.4,11.1,19.7,15.3
		c-23.4,0-46.9,0-70.3,0c0.3-0.6,0.6-1.2,1-1.8c7-8.9,10.6-18.9,10.2-30.3c-0.2-5.5,0.3-10.9,1.2-16.3c1.8-10.2,4.8-20,9-29.4
		c0.7-1.6,0.4-2.6-0.7-3.8c-6.3-7-8.7-15.6-9.9-24.7c6,5.8,8.2,3.2,10.6-2.2c1-2.2,2.1-4.5,3.6-6.4c2.6,3.6,9.2,2.3,11.5-1.6
		c5.7-9.9,12.5-19,20.6-27.1c4-4,6.3-8.7,6-14.6c-0.2-3.4-1.6-6.4-2.6-9.5c0.8,0.3,1.6,0.6,2.3,1.1c3,1.7,4.6,1.5,6.9-1
		c0.9,1-0.1,1.9-0.4,2.8c-1.9,5.2,1.6,11.4,5.9,12.7c0.3,3.7,1,4.5,4.8,5.1c5.8,0.9,11.7,0.9,17.5,0.1c0.5-0.1,1,0,2,0
		c-5.4,2.9-10.7,4.3-16,5.5c-2.6,0.6-5.3,0.8-7.9,0.5c-3.7-0.4-6.5,0.4-8,4.1c-1.8,0-3.6-0.1-5.4,0c-2.8,0.2-5.5,0.9-6.9,3.6
		c-4.2,8.2-8.8,16.1-12.1,24.7C367,364.5,370.5,369.6,376.9,369.6z M348.1,426.5c-2.5,0-4.1,1.8-4,4.6c0.4,9.7,3.1,18.8,7.3,27.5
		c1.2,2.4,3.5,3.3,5.5,2.3c2.4-1.2,3.1-3.5,1.9-6c-3.7-7.6-6-15.6-6.5-24C352.1,428.2,350.4,426.5,348.1,426.5z M350.6,407.6
		c-0.9-0.1-1.7,0.3-2.4,0.8c-1.8,1.3-3.4,6.7-2.5,8.7c0.7,1.3,1.7,2.4,3.3,2.4c1.6,0,3.1-0.3,3.8-2c0.7-1.8,1.4-3.7,1.8-5.5
		C355.1,409.8,352.8,407.6,350.6,407.6z"/>
	<path style="fill:#C78484;" d="M337,360.8c1.2,9.1,3.6,17.7,9.9,24.7c1.1,1.3,1.4,2.2,0.7,3.8c-4.2,9.4-7.3,19.3-9,29.4
		c-0.9,5.4-1.4,10.8-1.2,16.3c0.4,11.4-3.2,21.4-10.2,30.3c-0.4,0.5-0.7,1.2-1,1.8c-3.3,0-6.6,0-10.3,0c1.3-2,2.4-3.8,3.5-5.6
		c4.6-7.4,7-15.6,6.8-24.3c-0.3-16.4,3.7-31.8,10.1-46.6c1.6-3.6,1.5-4.3-1.2-7.3c-2.7-2.9-4.6-6.2-6-9.8
		c-3.7-9.5-4.5-19.5-4.1-29.7C328.2,350,332.5,355.5,337,360.8z"/>
	<path style="fill:#955859;" d="M396.4,467.1c-7.3-4.2-14-9.1-19.7-15.3c-6.4-6.9-11.9-14.5-16.1-22.9c-1.9-3.8-1.6-8-1.5-12
		c0.1-6.5,1.8-12.7,5.2-18.5c4-6.9,9.3-12.4,16.2-16.2c4.9-2.7,9.9-5.3,14.9-8c1.9,0,3.7,0,5.6,0c0.1,0.1,0.1,0.3,0.2,0.4
		c-1.3,0.7-2.6,1.6-4,2.2c-9.4,4.3-16.6,11-21.5,20c-2.7,4.9-4.2,10.2-5,15.7c-2,13.4,3.8,24.2,11.4,34.3
		c5.6,7.4,12.3,13.6,19.9,18.9c0.4,0.3,0.8,0.6,1.7,1.3C400.9,467.1,398.6,467.1,396.4,467.1z"/>
	<path style="fill:#C78484;" d="M386.6,299.3c1,3.1,2.5,6.1,2.6,9.5c0.3,5.9-2,10.6-6,14.6c-8.1,8.1-15,17.1-20.6,27.1
		c-2.3,3.9-8.8,5.3-11.5,1.6c4-7.5,9.2-14.1,14.7-20.5c5.3-6.1,11.2-11.5,16.7-17.3c3.5-3.6,3.3-5.7-0.6-8.8
		c-8.7-6.9-13.6-16.2-16.4-26.8c-1.1-4.2-1.8-8.4-1.4-12.8c4.2,13.1,10.1,25,21.9,33C386.3,299,386.5,299.2,386.6,299.3L386.6,299.3
		z"/>
	<path style="fill:#955859;" d="M376.9,369.6c-6.4,0-9.8-5.1-7.5-11.1c3.3-8.6,8-16.5,12.1-24.7c1.4-2.7,4.1-3.4,6.9-3.6
		c1.8-0.1,3.6,0,5.4,0c-1.5,4.1-3.6,7.9-5.7,11.7c-4.5,8.1-7.8,16.6-10.8,25.3C377,367.9,376.9,368.8,376.9,369.6z"/>
	<path style="fill:#955859;" d="M401.4,314.8c-4.3-1.3-7.7-7.4-5.9-12.7c0.3-0.8,1.3-1.7,0.4-2.8c6.9-8.5,13.4-17.3,19-27.2
		c0.7,1,0.4,1.7,0.3,2.4c-3.1,12.9-7.6,25.4-12.9,37.6C401.9,313,401.7,313.9,401.4,314.8z"/>
	<path style="fill:#C78484;" d="M363.8,264.3c0,0.1,0.1,0.1,0.1,0.2s-0.1,0.1-0.1,0.2C363.8,264.5,363.8,264.4,363.8,264.3z"/>
	<path style="fill:#955859;" d="M415.7,271.1c0,0.1,0,0.1-0.1,0.2c-0.1-0.1-0.1-0.1-0.2-0.2l0.1-0.1
		C415.7,271,415.7,271.1,415.7,271.1z"/>
	<path style="fill:#B66B6B;" d="M386.7,299.3c-0.2-0.2-0.4-0.3-0.5-0.5C386.3,299,386.5,299.2,386.7,299.3z"/>
	<path style="fill:#D0BCFF;" d="M433.7,214.4c-0.2,1.1,0.6,2.8-0.5,3.3c-1,0.5-2.1-0.8-3.1-1.4c-8.3-5.1-11.8-12.4-10.4-21.3
		c0.3-1.9,0.9-1.9,2.3-1C429.4,198.7,433.3,205.6,433.7,214.4z"/>
	<g>
		<path style="fill:#492532;" d="M299.7,412.8c8.4,0,9.7,1.5,8.5,8.6c-2.4,14.4-13.1,24.8-27.9,27.2c-1.9,0.3-3.9,0.6-5.8,0.6
			c-2.6,0.1-4.3-1.5-4.3-4.1c0-13.8,7.2-28.4,23.9-31.7C296.3,413,298.5,412.9,299.7,412.8z M299.9,422.1c-0.1-1.6-1.2-1-1.9-1
			c-9.8,1-17.1,8-18.7,17.8c-0.2,1.2,0,1.6,1.2,1.3c8-2,14.4-6.1,17.8-13.9C299,424.9,299.4,423.4,299.9,422.1z"/>
		<path style="fill:#D0BCFF;" d="M299.9,422.1c-0.5,1.3-0.9,2.8-1.5,4.2c-3.5,7.8-9.8,11.9-17.8,13.9c-1.2,0.3-1.4,0-1.2-1.3
			c1.6-9.8,8.9-16.8,18.7-17.8C298.7,421.1,299.8,420.5,299.9,422.1z"/>
	</g>
	<path style="fill:#D0BCFF;" d="M323.5,238.5c9.7-4.4,19.8-2,25.8,5.8c1.7,2.3,1.7,2.4-1.2,3.1C338.1,249.5,330.2,245.9,323.5,238.5
		z"/>
	<path style="fill:#492532;" d="M348.1,426.5c2.3,0,4,1.6,4.1,4.3c0.5,8.5,2.8,16.4,6.5,24c1.2,2.5,0.5,4.9-1.9,6
		c-2,1-4.3,0.1-5.5-2.3c-4.2-8.7-6.9-17.8-7.3-27.5C344,428.3,345.6,426.6,348.1,426.5z"/>
	<path style="fill:#492532;" d="M350.6,407.6c2.2,0,4.4,2.2,4.1,4.3c-0.3,1.9-1,3.8-1.8,5.5c-0.7,1.6-2.2,2-3.8,2
		c-1.7,0-2.7-1.1-3.3-2.4c-1-2,0.6-7.4,2.5-8.7C349,407.8,349.7,407.5,350.6,407.6z"/>
</g>
<g>
	<path style="fill:#492532;" d="M214.4,533.1c-0.2-1.7-1-3-2.3-3.9c-1.4-0.9-3.1-1.4-5.2-1.4c-1.5,0-2.8,0.2-3.8,0.7
		c-1.1,0.5-1.9,1.1-2.5,1.9c-0.6,0.8-0.9,1.7-0.9,2.7c0,0.9,0.2,1.6,0.6,2.2c0.4,0.6,0.9,1.1,1.6,1.6c0.7,0.4,1.4,0.8,2.1,1
		s1.5,0.5,2.2,0.7l3.5,0.9c1.2,0.3,2.3,0.7,3.5,1.1c1.2,0.5,2.3,1.1,3.4,1.9c1,0.8,1.9,1.8,2.5,2.9c0.6,1.2,1,2.6,1,4.2
		c0,2-0.5,3.9-1.6,5.5s-2.6,2.8-4.6,3.8c-2,0.9-4.4,1.4-7.2,1.4c-2.7,0-5-0.4-7-1.3c-2-0.9-3.5-2.1-4.6-3.7s-1.7-3.5-1.9-5.6h5.5
		c0.1,1.3,0.5,2.4,1.3,3.3c0.7,0.9,1.7,1.5,2.9,1.9s2.5,0.6,3.9,0.6c1.5,0,2.9-0.2,4.1-0.7c1.2-0.5,2.2-1.2,2.8-2
		c0.7-0.9,1-1.9,1-3.1c0-1.1-0.3-1.9-0.9-2.6c-0.6-0.7-1.4-1.2-2.5-1.7c-1-0.4-2.2-0.8-3.5-1.2l-4.3-1.2c-2.9-0.8-5.2-1.9-6.9-3.5
		c-1.7-1.5-2.5-3.6-2.5-6.1c0-2.1,0.6-3.9,1.7-5.5c1.1-1.6,2.7-2.8,4.6-3.6s4.1-1.3,6.5-1.3s4.6,0.4,6.5,1.3s3.4,2,4.4,3.5
		c1.1,1.5,1.6,3.2,1.7,5.2L214.4,533.1L214.4,533.1z"/>
	<path style="fill:#492532;" d="M238.7,523.6h6.2l9.4,16.4h0.4l9.4-16.4h6.2l-13.1,21.9v14.2h-5.4v-14.2L238.7,523.6z"/>
	<path style="fill:#492532;" d="M318.6,535.4h-5.5c-0.2-1.2-0.6-2.2-1.2-3.1c-0.6-0.9-1.3-1.7-2.1-2.3c-0.8-0.6-1.8-1.1-2.8-1.4
		c-1-0.3-2.1-0.5-3.3-0.5c-2.1,0-3.9,0.5-5.6,1.6s-2.9,2.6-3.9,4.6c-0.9,2-1.4,4.5-1.4,7.4s0.5,5.4,1.4,7.4s2.2,3.6,3.9,4.6
		c1.6,1,3.5,1.6,5.6,1.6c1.1,0,2.2-0.2,3.3-0.5c1-0.3,2-0.8,2.8-1.4c0.8-0.6,1.5-1.4,2.1-2.2s1-1.9,1.2-3.1h5.5
		c-0.3,1.8-0.9,3.4-1.7,4.9s-1.9,2.8-3.2,3.8s-2.8,1.9-4.5,2.5s-3.5,0.9-5.5,0.9c-3.1,0-5.9-0.7-8.4-2.2c-2.4-1.5-4.4-3.6-5.8-6.4
		c-1.4-2.8-2.1-6.1-2.1-9.9c0-3.9,0.7-7.2,2.1-9.9c1.4-2.8,3.3-4.9,5.8-6.4c2.4-1.5,5.2-2.2,8.3-2.2c1.9,0,3.7,0.3,5.4,0.8
		s3.2,1.3,4.5,2.4s2.4,2.3,3.3,3.8C317.7,531.7,318.3,533.4,318.6,535.4z"/>
	<path style="fill:#492532;" d="M342.8,559.8H337l13-36.1h6.3l13,36.1h-5.8l-10.2-29.6H353L342.8,559.8z M343.8,545.6h18.8v4.6
		h-18.8V545.6z"/>
	<path style="fill:#492532;" d="M389.5,523.6h6.6l11.5,28.1h0.4l11.5-28.1h6.6v36.1h-5.2v-26.1h-0.3l-10.7,26.1h-4.3L395,533.6h-0.3
		v26.2h-5.2V523.6z"/>
	<path style="fill:#492532;" d="M480.4,541.7c0,3.9-0.7,7.2-2.1,9.9c-1.4,2.8-3.3,4.9-5.8,6.4s-5.2,2.2-8.4,2.2
		c-3.1,0-5.9-0.7-8.4-2.2s-4.4-3.6-5.8-6.4c-1.4-2.8-2.1-6.1-2.1-9.9c0-3.9,0.7-7.2,2.1-9.9c1.4-2.8,3.3-4.9,5.8-6.4
		s5.2-2.2,8.4-2.2c3.1,0,5.9,0.7,8.4,2.2s4.4,3.6,5.8,6.4C479.7,534.5,480.4,537.8,480.4,541.7z M475,541.7c0-2.9-0.5-5.4-1.4-7.4
		s-2.2-3.5-3.9-4.6c-1.6-1-3.5-1.6-5.6-1.6s-3.9,0.5-5.6,1.6c-1.6,1-2.9,2.6-3.9,4.6c-0.9,2-1.4,4.5-1.4,7.4s0.5,5.4,1.4,7.4
		s2.2,3.5,3.9,4.6c1.6,1,3.5,1.6,5.6,1.6s3.9-0.5,5.6-1.6c1.6-1,2.9-2.6,3.9-4.6C474.5,547.1,475,544.6,475,541.7z"/>
	<path style="fill:#492532;" d="M502,559.8v-36.1h12.9c2.8,0,5.1,0.5,7,1.4c1.9,1,3.2,2.3,4.2,4c0.9,1.7,1.4,3.7,1.4,5.9
		s-0.5,4.2-1.4,5.8c-0.9,1.7-2.3,3-4.2,3.9s-4.2,1.4-7,1.4h-9.8v-4.7h9.3c1.8,0,3.2-0.3,4.3-0.8s1.9-1.2,2.4-2.2s0.8-2.1,0.8-3.5
		s-0.3-2.5-0.8-3.5s-1.3-1.8-2.5-2.3c-1.1-0.5-2.6-0.8-4.4-0.8h-6.8v31.5L502,559.8L502,559.8z M519.9,543.5l8.9,16.3h-6.2
		l-8.8-16.3H519.9z"/>
	<path style="fill:#492532;" d="M549,559.8v-36.1h22.7v4.7h-17.2v11h16v4.7h-16v11.1h17.4v4.7H549V559.8z"/>
</g>
</svg>
