<?xml version="1.0" encoding="utf-8"?>
<!-- Generator: Adobe Illustrator 24.3.0, SVG Export Plug-In . SVG Version: 6.00 Build 0)  -->
<svg version="1.1" id="Layer_1" xmlns="http://www.w3.org/2000/svg" xmlns:xlink="http://www.w3.org/1999/xlink" x="0px" y="0px"
	 viewBox="0 0 631 198" style="enable-background:new 0 0 631 198;" xml:space="preserve">
<g>
	<polygon points="229.46,57.43 229.46,121.93 219.31,121.93 219.31,47.29 	"/>
	<polygon points="490.57,57.43 490.57,121.93 480.41,121.93 480.41,47.27 	"/>
	<polygon points="387.18,57.43 387.18,121.93 377.02,121.93 377.02,47.29 	"/>
	<polygon points="305.74,47.29 305.74,94.87 295.58,84.71 295.58,47.29 	"/>
	<rect x="518.2" y="67.6" width="10.16" height="54.33"/>
	<path d="M551.94,57.46h-18.81h-10.16h-22.22V47.31h45.07C547.87,50.68,549.9,54.07,551.94,57.46z"/>
	<polygon points="617,47.27 597.37,79.94 591.62,70.42 605.54,47.27 	"/>
	<polygon points="591.55,87.36 591.55,121.98 581.39,121.98 581.39,89.53 580.78,88.5 556,47.27 567.48,47.27 581.39,70.45 
		586.51,78.96 	"/>
	<polygon points="305.76,107.65 305.76,121.93 295.6,111.57 259.18,74.39 258.41,73.64 256.58,71.78 256.58,71.81 246.42,61.65 
		246.42,47.29 246.44,47.29 256.58,57.66 295.6,97.44 298.08,99.98 298.54,100.45 	"/>
	<polygon points="366.83,77.96 366.83,88.1 332.86,88.1 332.86,121.93 322.7,121.93 322.7,77.96 	"/>
	<polygon points="256.58,84.55 256.58,121.93 246.42,121.93 246.42,74.39 	"/>
	<polygon points="463.45,47.29 463.45,94.87 453.3,84.71 453.3,47.29 	"/>
	<polygon points="463.47,107.65 463.47,121.93 453.32,111.57 416.87,74.39 416.11,73.64 414.3,71.78 414.3,71.81 404.14,61.65 
		404.14,47.29 404.14,47.29 414.3,57.66 453.32,97.44 455.78,99.98 456.25,100.45 	"/>
	<polygon points="414.3,84.55 414.3,121.93 404.14,121.93 404.14,74.39 	"/>
	<rect x="322.7" y="47.27" width="44.13" height="10.16"/>
	<path d="M229.92,161.29c-3.52,0-6.19-1-8.04-2.97c-1.83-1.98-2.76-4.72-2.76-8.22c0-2.32,0.42-4.3,1.23-5.99
		c0.83-1.67,2.01-2.96,3.56-3.88c1.54-0.91,3.43-1.36,5.6-1.36c1.31,0,2.56,0.18,3.77,0.54c1.22,0.36,2.3,0.94,3.25,1.72
		c0.29,0.2,0.45,0.45,0.49,0.76c0.04,0.31-0.02,0.58-0.16,0.83s-0.36,0.44-0.65,0.51c-0.27,0.09-0.58,0.02-0.89-0.18
		c-0.85-0.65-1.74-1.14-2.7-1.43c-0.94-0.31-2.01-0.45-3.16-0.45c-2.49,0-4.39,0.78-5.7,2.34c-1.32,1.56-1.98,3.75-1.98,6.58
		c0,2.9,0.69,5.1,2.05,6.64c1.36,1.52,3.39,2.29,6.11,2.29c1.76,0,3.45-0.29,5.06-0.91v-6.48h-4.43c-0.74,0-1.12-0.34-1.12-1.02
		c0-0.65,0.38-1,1.12-1h5.55c0.73,0,1.09,0.36,1.09,1.09v8.09c0,0.63-0.22,1.05-0.69,1.23c-0.87,0.38-1.9,0.67-3.12,0.91
		C232.24,161.16,231.06,161.29,229.92,161.29z"/>
	<path d="M245.57,161.22c-0.85,0-1.27-0.44-1.27-1.34v-19.43c0-0.87,0.44-1.31,1.31-1.31h7.35c2.36,0,4.15,0.54,5.41,1.65
		c1.25,1.09,1.87,2.65,1.87,4.68c0,1.61-0.44,2.94-1.32,3.97c-0.87,1.03-2.12,1.71-3.74,2.01c0.94,0.33,1.76,1.14,2.45,2.41
		l2.97,5.55c0.24,0.44,0.27,0.83,0.13,1.23c-0.15,0.38-0.47,0.58-1,0.58c-0.34,0-0.63-0.07-0.87-0.24s-0.42-0.4-0.6-0.73l-3.37-6.26
		c-0.47-0.89-1.02-1.49-1.65-1.78c-0.62-0.31-1.43-0.45-2.45-0.45h-3.97v8.13C246.84,160.78,246.42,161.22,245.57,161.22z
		 M246.84,149.76h5.73c3.43,0,5.15-1.43,5.15-4.28c0-2.81-1.72-4.21-5.15-4.21h-5.73V149.76z"/>
	<path d="M275.92,161.29c-2.03,0-3.79-0.45-5.28-1.38c-1.51-0.93-2.65-2.21-3.46-3.88c-0.82-1.67-1.22-3.66-1.22-5.95
		c0-2.29,0.4-4.28,1.22-5.95c0.8-1.67,1.96-2.96,3.45-3.88c1.51-0.91,3.26-1.36,5.31-1.36c2.07,0,3.85,0.45,5.35,1.36
		c1.51,0.91,2.65,2.19,3.46,3.86c0.82,1.67,1.22,3.65,1.22,5.93s-0.42,4.28-1.23,5.97c-0.83,1.69-2,2.99-3.48,3.9
		C279.73,160.82,277.97,161.29,275.92,161.29z M275.92,159.02c2.34,0,4.14-0.78,5.42-2.36c1.29-1.58,1.92-3.77,1.92-6.6
		s-0.63-5.02-1.92-6.58c-1.29-1.56-3.08-2.34-5.42-2.34c-2.29,0-4.08,0.78-5.37,2.34c-1.29,1.56-1.92,3.75-1.92,6.58
		c0,2.81,0.63,5.01,1.92,6.58C271.84,158.23,273.63,159.02,275.92,159.02z"/>
	<path d="M300.99,161.29c-2.87,0-5.06-0.76-6.55-2.29c-1.49-1.52-2.23-3.74-2.23-6.64v-12.12c0-0.87,0.42-1.31,1.27-1.31
		c0.85,0,1.27,0.44,1.27,1.31v11.99c0,4.52,2.07,6.78,6.22,6.78c4.12,0,6.17-2.27,6.17-6.78v-11.99c0-0.87,0.44-1.31,1.31-1.31
		c0.83,0,1.23,0.44,1.23,1.31v12.12c0,2.92-0.74,5.13-2.21,6.64S303.85,161.29,300.99,161.29z"/>
	<path d="M318.07,161.22c-0.85,0-1.27-0.44-1.27-1.34v-19.43c0-0.87,0.44-1.31,1.31-1.31h7.35c2.36,0,4.15,0.56,5.41,1.71
		c1.25,1.14,1.87,2.76,1.87,4.86c0,2.09-0.63,3.7-1.87,4.84c-1.25,1.14-3.05,1.72-5.41,1.72h-6.11v7.6
		C319.34,160.78,318.92,161.22,318.07,161.22z M319.34,150.15h5.8c3.39,0,5.08-1.47,5.08-4.43c0-2.97-1.69-4.46-5.08-4.46h-5.8
		V150.15z"/>
	<path d="M357.31,161.29c-2.03,0-3.79-0.45-5.28-1.38c-1.51-0.93-2.65-2.21-3.46-3.88c-0.82-1.67-1.22-3.66-1.22-5.95
		c0-2.29,0.4-4.28,1.22-5.95c0.8-1.67,1.96-2.96,3.45-3.88c1.51-0.91,3.26-1.36,5.31-1.36c2.07,0,3.85,0.45,5.35,1.36
		c1.51,0.91,2.65,2.19,3.46,3.86c0.82,1.67,1.22,3.65,1.22,5.93s-0.42,4.28-1.23,5.97c-0.83,1.69-2,2.99-3.48,3.9
		C361.13,160.82,359.36,161.29,357.31,161.29z M357.31,159.02c2.34,0,4.14-0.78,5.42-2.36c1.29-1.58,1.92-3.77,1.92-6.6
		s-0.63-5.02-1.92-6.58c-1.29-1.56-3.08-2.34-5.42-2.34c-2.29,0-4.08,0.78-5.37,2.34c-1.29,1.56-1.92,3.75-1.92,6.58
		c0,2.81,0.63,5.01,1.92,6.58C353.23,158.23,355.02,159.02,357.31,159.02z"/>
	<path d="M375.14,161.22c-0.91,0-1.36-0.47-1.36-1.4v-19.28c0-0.93,0.47-1.4,1.4-1.4h11.25c0.73,0,1.09,0.34,1.09,1.05
		c0,0.73-0.36,1.09-1.09,1.09h-10.1v7.62h9.45c0.74,0,1.11,0.34,1.11,1.05c0,0.73-0.36,1.09-1.11,1.09h-9.45v8.78
		C376.32,160.77,375.92,161.22,375.14,161.22z"/>
	<path d="M411.92,161.29c-2.16,0-3.99-0.45-5.51-1.36c-1.52-0.91-2.7-2.19-3.52-3.88c-0.82-1.67-1.22-3.66-1.22-5.99
		c0-2.29,0.4-4.28,1.22-5.95c0.82-1.67,2-2.96,3.52-3.88c1.52-0.91,3.37-1.36,5.51-1.36c1.29,0,2.5,0.18,3.66,0.56
		c1.16,0.36,2.16,0.91,3.01,1.58c0.34,0.25,0.54,0.54,0.6,0.87s0,0.63-0.16,0.89c-0.16,0.25-0.4,0.42-0.69,0.49
		c-0.31,0.07-0.63-0.02-1.02-0.29c-1.47-1.18-3.25-1.76-5.33-1.76c-2.47,0-4.34,0.78-5.64,2.32c-1.31,1.54-1.96,3.74-1.96,6.55
		c0,2.83,0.65,5.02,1.96,6.57c1.31,1.54,3.17,2.32,5.64,2.32c2.09,0,3.88-0.6,5.39-1.8c0.36-0.25,0.71-0.34,1.02-0.27
		c0.31,0.05,0.53,0.22,0.69,0.47s0.22,0.53,0.16,0.83c-0.04,0.31-0.22,0.58-0.53,0.83c-0.89,0.74-1.9,1.31-3.07,1.69
		C414.48,161.09,413.25,161.29,411.92,161.29z"/>
	<path d="M433.71,161.29c-2.03,0-3.79-0.45-5.28-1.38c-1.51-0.93-2.65-2.21-3.46-3.88c-0.82-1.67-1.22-3.66-1.22-5.95
		c0-2.29,0.4-4.28,1.22-5.95c0.8-1.67,1.96-2.96,3.45-3.88c1.51-0.91,3.26-1.36,5.31-1.36c2.07,0,3.85,0.45,5.35,1.36
		c1.51,0.91,2.65,2.19,3.46,3.86c0.82,1.67,1.22,3.65,1.22,5.93s-0.42,4.28-1.23,5.97c-0.83,1.69-2,2.99-3.48,3.9
		C437.53,160.82,435.76,161.29,433.71,161.29z M433.71,159.02c2.34,0,4.14-0.78,5.42-2.36c1.29-1.58,1.92-3.77,1.92-6.6
		s-0.63-5.02-1.92-6.58c-1.29-1.56-3.08-2.34-5.42-2.34c-2.29,0-4.08,0.78-5.37,2.34c-1.29,1.56-1.92,3.75-1.92,6.58
		c0,2.81,0.63,5.01,1.92,6.58C429.63,158.23,431.42,159.02,433.71,159.02z"/>
	<path d="M451.41,161.22c-0.78,0-1.18-0.42-1.18-1.23v-19.81c0-0.83,0.4-1.23,1.18-1.23c0.33,0,0.6,0.07,0.8,0.2
		c0.2,0.13,0.38,0.36,0.54,0.67l8.04,15.13l8-15.13c0.16-0.31,0.34-0.53,0.53-0.67c0.18-0.13,0.45-0.2,0.8-0.2
		c0.76,0,1.14,0.42,1.14,1.23v19.81c0,0.83-0.4,1.23-1.18,1.23c-0.78,0-1.18-0.42-1.18-1.23v-16.05l-7,13.17
		c-0.15,0.27-0.29,0.45-0.45,0.58c-0.16,0.11-0.38,0.16-0.67,0.16s-0.51-0.05-0.69-0.18c-0.16-0.13-0.31-0.31-0.44-0.56l-7.09-13.13
		v16.02C452.55,160.82,452.17,161.22,451.41,161.22z"/>
	<path d="M479.8,161.22c-0.85,0-1.27-0.44-1.27-1.34v-19.43c0-0.87,0.44-1.31,1.31-1.31h7.35c2.36,0,4.15,0.56,5.41,1.71
		c1.25,1.14,1.87,2.76,1.87,4.86c0,2.09-0.63,3.7-1.87,4.84c-1.25,1.14-3.05,1.72-5.41,1.72h-6.11v7.6
		C481.07,160.78,480.65,161.22,479.8,161.22z M481.07,150.15h5.8c3.39,0,5.08-1.47,5.08-4.43c0-2.97-1.69-4.46-5.08-4.46h-5.8
		V150.15z"/>
	<path d="M497.34,161.22c-0.49,0-0.83-0.16-1.02-0.49c-0.18-0.33-0.16-0.74,0.05-1.23l8.53-19.41c0.33-0.76,0.83-1.14,1.52-1.14
		c0.31,0,0.6,0.09,0.85,0.27c0.25,0.18,0.47,0.47,0.63,0.89l8.56,19.41c0.24,0.49,0.25,0.91,0.09,1.23c-0.16,0.33-0.49,0.49-1,0.49
		c-0.36,0-0.67-0.09-0.91-0.29c-0.24-0.2-0.42-0.47-0.56-0.85l-2.01-4.64h-11.37l-1.98,4.64
		C498.41,160.84,497.94,161.22,497.34,161.22z M506.39,142.14l-4.73,11.16h9.54l-4.73-11.16H506.39z"/>
	<path d="M523.48,161.22c-0.8,0-1.22-0.42-1.22-1.27v-19.72c0-0.87,0.36-1.31,1.11-1.31c0.31,0,0.54,0.05,0.71,0.16
		c0.16,0.11,0.34,0.31,0.56,0.6l12.77,17.01v-16.54c0-0.83,0.4-1.23,1.22-1.23c0.76,0,1.14,0.42,1.14,1.23v19.81
		c0,0.83-0.34,1.23-1.02,1.23c-0.31,0-0.56-0.05-0.74-0.18c-0.18-0.13-0.38-0.33-0.58-0.58l-12.77-17.07v16.58
		C524.64,160.8,524.26,161.22,523.48,161.22z"/>
	<path d="M548.33,161.22c-0.85,0-1.27-0.44-1.27-1.34v-19.63c0-0.89,0.42-1.32,1.27-1.32c0.85,0,1.27,0.44,1.27,1.32v19.63
		C549.6,160.78,549.18,161.22,548.33,161.22z"/>
	<path d="M558.27,161c-0.93,0-1.4-0.47-1.4-1.4v-19.06c0-0.93,0.47-1.4,1.4-1.4h11.54c0.73,0,1.09,0.34,1.09,1.05
		c0,0.73-0.36,1.09-1.09,1.09h-10.45v7.56h9.8c0.73,0,1.09,0.34,1.09,1.05c0,0.73-0.36,1.09-1.09,1.09h-9.8v7.87h10.45
		c0.73,0,1.09,0.34,1.09,1.05c0,0.73-0.36,1.09-1.09,1.09L558.27,161L558.27,161z"/>
	<path d="M583.57,161.29c-1.49,0-2.88-0.18-4.21-0.54c-1.31-0.36-2.45-0.89-3.39-1.6c-0.33-0.22-0.53-0.49-0.58-0.8
		c-0.05-0.31-0.02-0.6,0.11-0.87c0.13-0.27,0.34-0.45,0.6-0.54c0.27-0.09,0.58-0.02,0.93,0.2c0.93,0.69,1.92,1.16,2.97,1.45
		c1.05,0.29,2.25,0.44,3.56,0.44c1.87,0,3.25-0.34,4.14-1.03c0.91-0.69,1.34-1.61,1.34-2.74c0-0.91-0.33-1.63-0.98-2.18
		c-0.65-0.54-1.74-0.96-3.26-1.27l-3.23-0.65c-1.94-0.42-3.39-1.09-4.35-2.03c-0.96-0.94-1.43-2.19-1.43-3.77
		c0-1.31,0.33-2.43,1-3.41c0.67-0.98,1.61-1.72,2.81-2.27c1.2-0.54,2.58-0.8,4.15-0.8c1.31,0,2.52,0.18,3.65,0.54
		c1.12,0.36,2.14,0.91,3.05,1.63c0.29,0.24,0.45,0.49,0.51,0.8c0.05,0.31,0,0.58-0.15,0.82c-0.15,0.25-0.34,0.4-0.62,0.47
		c-0.27,0.07-0.6,0-0.96-0.24c-0.83-0.63-1.69-1.09-2.59-1.36c-0.91-0.27-1.87-0.4-2.94-0.4c-1.63,0-2.94,0.38-3.9,1.12
		c-0.98,0.76-1.45,1.76-1.45,2.99c0,1,0.31,1.78,0.91,2.36c0.62,0.58,1.61,1,2.99,1.27l3.23,0.69c2.09,0.44,3.63,1.09,4.63,1.96
		c1,0.87,1.51,2.07,1.51,3.57c0,1.22-0.33,2.29-0.98,3.23c-0.65,0.93-1.58,1.65-2.79,2.18
		C586.65,161.02,585.22,161.29,583.57,161.29z"/>
	<g>
		<g>
			<g>
				<path d="M154.6,21.51l-7.35,7.35l-7.73,7.73l-1.02,1.02c-2.47-0.67-5.06-1.02-7.73-1.02h-0.02c-0.24,0-0.45,0-0.69,0.02
					c-0.38,0.02-0.78,0.02-1.16,0.05c-0.13,0.02-0.25,0.02-0.4,0.04c-0.27,0.02-0.53,0.04-0.78,0.07c-0.02,0-0.04,0-0.05,0
					c-0.04,0-0.09,0.02-0.13,0.02c-0.36,0.04-0.74,0.09-1.11,0.15c-0.02,0-0.02,0-0.04,0c0,0,0,0-0.02,0
					c-0.16,0.02-0.33,0.05-0.49,0.07c-0.15,0.02-0.29,0.05-0.45,0.07c-0.15,0.02-0.29,0.05-0.45,0.07
					c-0.18,0.04-0.36,0.07-0.54,0.11c-0.2,0.04-0.38,0.09-0.58,0.13c-0.22,0.04-0.42,0.09-0.63,0.15c-0.2,0.05-0.42,0.11-0.62,0.16
					c-0.2,0.05-0.4,0.11-0.58,0.16c-0.22,0.07-0.44,0.13-0.65,0.2c-0.27,0.09-0.56,0.2-0.83,0.29c-0.05,0.02-0.13,0.05-0.18,0.07
					c-0.15,0.05-0.31,0.11-0.45,0.18c-0.02,0-0.02,0-0.04,0.02c-0.05,0.02-0.13,0.05-0.18,0.07c-0.22,0.09-0.45,0.18-0.67,0.27
					c-0.09,0.04-0.2,0.07-0.29,0.11c-0.05,0.02-0.09,0.04-0.15,0.07c-0.2,0.09-0.38,0.16-0.56,0.27c-0.2,0.09-0.38,0.18-0.56,0.27
					c-0.18,0.09-0.36,0.18-0.54,0.27c-0.15,0.07-0.27,0.15-0.42,0.22c-0.18,0.09-0.36,0.2-0.56,0.31c-0.18,0.11-0.36,0.22-0.54,0.33
					c-0.34,0.2-0.67,0.42-1.02,0.63c-0.16,0.11-0.33,0.22-0.49,0.33c-0.04,0.02-0.05,0.04-0.09,0.07c-0.2,0.13-0.38,0.27-0.58,0.42
					c-0.24,0.16-0.47,0.34-0.71,0.53c-0.15,0.11-0.29,0.24-0.44,0.34c-0.07,0.05-0.13,0.11-0.2,0.15l0,0
					c-0.34,0.27-0.69,0.58-1.02,0.87l-0.11,0.09c-0.36,0.33-0.73,0.67-1.07,1.02s-0.69,0.69-1.02,1.05
					c-0.16,0.18-0.34,0.38-0.51,0.56c-0.27,0.33-0.54,0.65-0.82,0.98c-0.09,0.11-0.18,0.22-0.27,0.34
					c-0.02,0.02-0.04,0.05-0.07,0.09c-0.02,0.02-0.04,0.05-0.07,0.09c-0.2,0.25-0.38,0.51-0.58,0.78c-0.11,0.15-0.2,0.27-0.29,0.42
					c-0.33,0.47-0.63,0.94-0.93,1.41c-0.11,0.16-0.2,0.34-0.31,0.51c-0.02,0.02-0.04,0.05-0.05,0.09c-0.09,0.16-0.2,0.33-0.27,0.49
					c-0.02,0.05-0.05,0.11-0.07,0.15c-0.09,0.16-0.18,0.33-0.25,0.49c-0.18,0.34-0.34,0.71-0.53,1.05c-0.07,0.15-0.13,0.27-0.2,0.4
					c-0.07,0.15-0.13,0.27-0.18,0.42c-0.11,0.24-0.2,0.47-0.29,0.71c0,0.02-0.02,0.02-0.02,0.04c-0.04,0.09-0.07,0.16-0.11,0.25
					c-0.05,0.13-0.09,0.24-0.15,0.36c-0.04,0.11-0.09,0.24-0.13,0.34l0,0c-0.04,0.11-0.07,0.2-0.11,0.31
					c-0.04,0.11-0.07,0.2-0.11,0.31c-0.09,0.24-0.16,0.45-0.24,0.69s-0.15,0.47-0.22,0.71c-0.15,0.47-0.25,0.94-0.36,1.43
					c-0.05,0.24-0.11,0.49-0.16,0.73c-0.09,0.42-0.16,0.85-0.24,1.29c-0.02,0.15-0.05,0.31-0.07,0.45c-0.02,0.11-0.04,0.2-0.04,0.31
					c-0.02,0.18-0.05,0.36-0.07,0.54c-0.02,0.2-0.05,0.42-0.07,0.63c-0.02,0.24-0.04,0.47-0.05,0.71c-0.02,0.34-0.04,0.69-0.05,1.05
					c-0.02,0.34-0.02,0.71-0.02,1.05c0-0.27,0-0.58-0.02-0.85c0-0.02,0-0.02,0-0.04c0-0.04,0-0.09,0-0.13c0-0.09,0-0.2,0-0.29v-0.07
					c0-0.04,0-0.09,0-0.13c0-0.13-0.02-0.27-0.02-0.4c0-0.11,0-0.22-0.02-0.33c0-0.05,0-0.11,0-0.16c0-0.05,0-0.11-0.02-0.18
					c-0.02-0.29-0.04-0.58-0.05-0.89c-0.02-0.36-0.05-0.71-0.09-1.07c0-0.05,0-0.11-0.02-0.16c-0.02-0.09-0.02-0.2-0.04-0.29
					c0-0.09-0.02-0.2-0.04-0.29c0,0,0,0,0-0.02c0-0.02,0-0.04,0-0.05c0-0.04-0.02-0.09-0.02-0.15c-0.02-0.16-0.04-0.33-0.07-0.49
					c-0.07-0.49-0.13-0.98-0.22-1.45c-0.02-0.18-0.05-0.36-0.09-0.56c-0.04-0.24-0.09-0.45-0.13-0.69v-0.02c0-0.02,0-0.04-0.02-0.05
					c0-0.02,0-0.02,0-0.04c-0.04-0.16-0.07-0.33-0.11-0.49c-0.05-0.24-0.09-0.45-0.15-0.67c-0.02-0.13-0.05-0.27-0.09-0.4
					c-0.04-0.15-0.07-0.29-0.11-0.44c-0.04-0.15-0.07-0.29-0.11-0.44c0-0.02-0.02-0.04-0.02-0.07c-0.07-0.25-0.13-0.51-0.2-0.76
					c-0.04-0.15-0.07-0.27-0.11-0.42c-0.07-0.22-0.13-0.44-0.2-0.65c-0.02-0.04-0.02-0.09-0.04-0.13c-0.02-0.04-0.02-0.09-0.04-0.13
					c-0.04-0.15-0.09-0.31-0.15-0.45c-0.07-0.2-0.13-0.4-0.2-0.6c-0.11-0.34-0.24-0.69-0.36-1.03c-0.07-0.16-0.13-0.33-0.18-0.49
					c-0.07-0.18-0.15-0.36-0.2-0.53c-0.13-0.34-0.27-0.67-0.42-1.02c-0.07-0.16-0.15-0.34-0.22-0.51c-0.07-0.2-0.16-0.38-0.25-0.58
					c-0.15-0.31-0.29-0.62-0.44-0.93c-0.15-0.31-0.29-0.62-0.45-0.91c0-0.02-0.02-0.04-0.02-0.05c-0.02-0.02-0.02-0.05-0.04-0.07
					c-0.04-0.07-0.07-0.15-0.11-0.24c-0.05-0.09-0.09-0.18-0.15-0.27c-0.07-0.15-0.15-0.27-0.22-0.4c-0.09-0.18-0.18-0.34-0.29-0.51
					c-0.04-0.07-0.09-0.16-0.13-0.24c-0.07-0.15-0.16-0.29-0.24-0.44c-0.05-0.09-0.11-0.18-0.16-0.27
					c-0.04-0.05-0.07-0.11-0.11-0.16c-0.09-0.16-0.2-0.33-0.31-0.49c-0.27-0.45-0.58-0.93-0.89-1.38c0.6-0.91,1.23-1.8,1.9-2.65
					c0.15-0.18,0.27-0.36,0.42-0.53c0.16-0.2,0.33-0.42,0.49-0.62c0.22-0.25,0.44-0.51,0.65-0.76c0.07-0.07,0.13-0.15,0.18-0.22
					s0.13-0.15,0.2-0.22c0.07-0.07,0.13-0.15,0.2-0.24c0.07-0.07,0.13-0.15,0.2-0.22c0.2-0.24,0.42-0.45,0.63-0.67
					c0.25-0.25,0.49-0.53,0.76-0.78c0.25-0.25,0.51-0.51,0.78-0.76c0.18-0.16,0.34-0.33,0.53-0.49c0.13-0.13,0.27-0.25,0.4-0.36
					c0.05-0.05,0.11-0.11,0.16-0.15c0.02,0,0.02-0.02,0.02-0.02c0.04-0.04,0.07-0.07,0.13-0.11c0.07-0.07,0.16-0.15,0.25-0.22
					c0.05-0.05,0.11-0.09,0.15-0.13c0.07-0.07,0.15-0.13,0.22-0.2c0.13-0.11,0.24-0.22,0.36-0.31c0.02-0.02,0.02-0.02,0.04-0.04
					c0.24-0.2,0.47-0.38,0.71-0.58c0.04-0.04,0.09-0.07,0.15-0.11c0.11-0.07,0.2-0.15,0.31-0.24c0.24-0.18,0.45-0.36,0.69-0.54
					c0.27-0.2,0.54-0.4,0.82-0.6c0.2-0.15,0.4-0.27,0.6-0.42l0.58-0.4l0.6-0.4c0.04-0.02,0.05-0.04,0.09-0.05
					c0.24-0.15,0.47-0.31,0.71-0.45c0.25-0.16,0.51-0.31,0.78-0.45c0.18-0.11,0.38-0.22,0.56-0.33c0.02-0.02,0.02-0.02,0.04-0.02
					c0.15-0.09,0.29-0.16,0.44-0.25c0.07-0.04,0.13-0.07,0.2-0.11c0.18-0.11,0.36-0.2,0.56-0.29c0.07-0.05,0.16-0.09,0.25-0.13
					c0.16-0.09,0.34-0.18,0.51-0.25c0.11-0.05,0.22-0.11,0.33-0.16c0.11-0.05,0.22-0.11,0.33-0.16c0.33-0.15,0.63-0.31,0.96-0.45
					c0.02-0.02,0.04-0.02,0.04-0.02c0.05-0.02,0.11-0.05,0.16-0.07c0.18-0.07,0.34-0.16,0.53-0.24c0.05-0.02,0.09-0.04,0.15-0.07
					c0.09-0.04,0.18-0.07,0.27-0.11c0.04-0.02,0.07-0.04,0.11-0.05c0.22-0.09,0.44-0.18,0.65-0.27c0.16-0.07,0.33-0.13,0.49-0.2
					c0.2-0.07,0.4-0.16,0.6-0.24c0.02-0.02,0.04-0.02,0.07-0.02c0.22-0.07,0.44-0.16,0.65-0.24c0.22-0.09,0.44-0.15,0.65-0.22
					c0.44-0.15,0.89-0.27,1.32-0.42c0.44-0.13,0.89-0.25,1.34-0.38c0.33-0.09,0.63-0.16,0.96-0.24c0.29-0.07,0.58-0.15,0.89-0.2
					c0.04,0,0.05-0.02,0.09-0.02c0.16-0.04,0.34-0.07,0.51-0.11c0.05-0.02,0.11-0.02,0.16-0.04c0.31-0.07,0.62-0.13,0.93-0.18
					c0,0,0,0,0.02,0s0.02,0,0.02,0c0.18-0.04,0.36-0.07,0.54-0.09c0.24-0.04,0.49-0.07,0.74-0.11l0,0c0.31-0.05,0.63-0.09,0.93-0.13
					c0.05,0,0.13-0.02,0.18-0.02c0.27-0.04,0.54-0.07,0.82-0.09c0.04,0,0.07-0.02,0.11-0.02c0.34-0.04,0.67-0.07,1.02-0.09
					c0.07-0.02,0.15-0.02,0.24-0.02c0.29-0.02,0.58-0.04,0.89-0.05c0.11,0,0.2-0.02,0.29-0.02c0.16,0,0.34-0.02,0.51-0.02
					c0.16,0,0.34-0.02,0.51-0.02c0.38-0.02,0.76-0.02,1.12-0.02h24V21.51z"/>
				<g>
					<path d="M175.75,140.25c-0.02-0.38-0.02-0.76-0.04-1.14c-0.02-0.38-0.04-0.76-0.07-1.14v-0.02c-0.02-0.38-0.07-0.76-0.11-1.12
						c-0.04-0.33-0.07-0.65-0.11-0.96c-0.02-0.18-0.04-0.34-0.07-0.53c-0.02-0.15-0.04-0.27-0.05-0.42
						c-0.04-0.24-0.07-0.47-0.11-0.71c-0.02-0.11-0.04-0.22-0.05-0.33c-0.04-0.25-0.09-0.49-0.13-0.74c0-0.07-0.02-0.13-0.04-0.18
						c-0.05-0.29-0.11-0.58-0.16-0.87c-0.02-0.07-0.02-0.13-0.04-0.18c-0.07-0.29-0.13-0.58-0.2-0.87v-0.02
						c-0.07-0.33-0.16-0.65-0.25-0.98c-0.34-1.32-0.76-2.63-1.22-3.9c-0.11-0.33-0.24-0.63-0.36-0.94
						c-0.09-0.22-0.16-0.44-0.25-0.63c-0.24-0.58-0.49-1.18-0.76-1.74c-0.09-0.22-0.18-0.42-0.29-0.62
						c-0.11-0.24-0.22-0.45-0.33-0.67c0,0,0-0.02-0.02-0.02c-0.13-0.25-0.25-0.51-0.38-0.76c-0.22-0.42-0.44-0.82-0.65-1.22
						c-0.13-0.24-0.25-0.45-0.38-0.67c-0.16-0.29-0.33-0.58-0.51-0.85c-1.05-1.71-2.21-3.34-3.48-4.9
						c-0.18-0.22-0.36-0.44-0.54-0.65c-0.05-0.05-0.09-0.13-0.15-0.18c-0.18-0.22-0.36-0.42-0.54-0.63
						c-0.02-0.02-0.02-0.04-0.05-0.05c0-0.02-0.02-0.02-0.02-0.02c-0.31-0.34-0.63-0.69-0.94-1.03c-0.02-0.02-0.04-0.05-0.07-0.07
						c-0.31-0.33-0.62-0.63-0.94-0.96c-0.29-0.29-0.6-0.58-0.89-0.85c-0.07-0.07-0.16-0.16-0.24-0.24
						c-0.33-0.29-0.63-0.58-0.98-0.87c-0.34-0.31-0.71-0.6-1.07-0.89c-0.04-0.04-0.07-0.07-0.11-0.09c-0.29-0.25-0.6-0.49-0.91-0.73
						c-0.09-0.07-0.2-0.15-0.29-0.24c-0.71-0.54-1.43-1.05-2.18-1.56l-0.02-0.02c0,0,0,0-0.02,0c-0.45-0.31-0.93-0.6-1.4-0.89
						c-0.22-0.13-0.44-0.25-0.65-0.4c-0.24-0.13-0.45-0.27-0.69-0.4c-1.23-0.71-2.5-1.34-3.81-1.92c-0.25-0.13-0.53-0.24-0.8-0.34
						c-1.07-0.45-2.16-0.87-3.26-1.25c-0.33-0.11-0.63-0.22-0.96-0.31c-0.31-0.09-0.62-0.18-0.93-0.27
						c-0.15-0.04-0.27-0.07-0.4-0.11c-0.24-0.07-0.47-0.13-0.73-0.2c-0.05-0.02-0.11-0.04-0.16-0.04c-0.27-0.07-0.56-0.15-0.83-0.2
						c-0.36-0.09-0.71-0.16-1.07-0.24c-0.18-0.04-0.36-0.07-0.54-0.11c-0.24-0.05-0.49-0.09-0.73-0.13c-0.02,0-0.02-0.02-0.02,0
						c-0.34-0.07-0.69-0.13-1.03-0.18c-0.33-0.05-0.63-0.09-0.96-0.15c-0.16-0.02-0.33-0.04-0.47-0.05
						c-0.27-0.04-0.54-0.07-0.82-0.09c-0.04,0-0.09-0.02-0.13-0.02c-0.36-0.04-0.71-0.07-1.07-0.09c-0.29-0.02-0.58-0.04-0.89-0.05
						c-0.02,0-0.04,0-0.07,0c-0.15,0-0.29-0.02-0.44-0.02c-0.25-0.02-0.51-0.02-0.76-0.02c-0.22,0-0.44-0.02-0.67-0.02
						c-0.15,0-0.29,0-0.44,0h-30.15V66.61c0-0.27,0-0.58-0.02-0.85c0-0.02,0-0.02,0-0.04c0-0.04,0-0.09,0-0.13c0-0.09,0-0.2,0-0.29
						v-0.07c0-0.04,0-0.09,0-0.13c0-0.13-0.02-0.27-0.02-0.4c0-0.11,0-0.22-0.02-0.33c0-0.05,0-0.11,0-0.16c0-0.05,0-0.11-0.02-0.18
						c-0.02-0.29-0.04-0.58-0.05-0.89c-0.02-0.36-0.05-0.71-0.09-1.07c0-0.05,0-0.11-0.02-0.16c-0.02-0.09-0.02-0.2-0.04-0.29
						c0-0.09-0.02-0.2-0.04-0.29c0,0,0,0,0-0.02c0-0.02,0-0.04,0-0.05c0-0.04-0.02-0.09-0.02-0.15c-0.02-0.16-0.04-0.33-0.07-0.49
						c-0.07-0.49-0.13-0.98-0.22-1.45c-0.02-0.18-0.05-0.36-0.09-0.56c-0.04-0.24-0.09-0.45-0.13-0.69V57.9c0-0.02,0-0.04-0.02-0.05
						c0-0.02,0-0.02,0-0.04c-0.04-0.16-0.07-0.33-0.11-0.49c-0.05-0.24-0.09-0.45-0.15-0.67c-0.02-0.13-0.05-0.27-0.09-0.4
						c-0.04-0.15-0.07-0.29-0.11-0.44c-0.04-0.15-0.07-0.29-0.11-0.44c0-0.02-0.02-0.04-0.02-0.07c-0.07-0.25-0.13-0.51-0.2-0.76
						c-0.04-0.15-0.07-0.27-0.11-0.42c-0.07-0.22-0.13-0.44-0.2-0.65c-0.02-0.04-0.02-0.09-0.04-0.13
						c-0.02-0.04-0.02-0.09-0.04-0.13c-0.04-0.15-0.09-0.31-0.15-0.45c-0.07-0.2-0.13-0.4-0.2-0.6c-0.11-0.34-0.24-0.69-0.36-1.03
						c-0.07-0.16-0.13-0.33-0.18-0.49c-0.07-0.18-0.15-0.36-0.2-0.53c-0.13-0.34-0.27-0.67-0.42-1.02
						c-0.07-0.16-0.15-0.34-0.22-0.51c-0.07-0.2-0.16-0.38-0.25-0.58c-0.15-0.31-0.29-0.62-0.44-0.93s-0.29-0.62-0.45-0.91
						c0-0.02-0.02-0.04-0.02-0.05c-0.02-0.02-0.02-0.05-0.04-0.07c-0.04-0.07-0.07-0.15-0.11-0.24c-0.05-0.09-0.09-0.18-0.15-0.27
						c-0.07-0.15-0.15-0.27-0.22-0.4c-0.09-0.18-0.18-0.34-0.29-0.51c-0.04-0.07-0.09-0.16-0.13-0.24
						c-0.07-0.15-0.16-0.29-0.24-0.44c-0.05-0.09-0.11-0.18-0.16-0.27c-0.04-0.05-0.07-0.11-0.11-0.16
						c-0.09-0.16-0.2-0.33-0.31-0.49c-0.27-0.45-0.58-0.93-0.89-1.38l-0.02-0.02c-0.11-0.16-0.24-0.34-0.34-0.51
						c-0.11-0.16-0.22-0.33-0.34-0.49c-0.07-0.09-0.13-0.18-0.2-0.27c-0.02-0.02-0.02-0.05-0.05-0.07c-0.15-0.2-0.31-0.42-0.45-0.62
						c-0.65-0.89-1.34-1.74-2.07-2.58c-0.13-0.15-0.25-0.29-0.38-0.42c-0.07-0.07-0.13-0.15-0.2-0.24
						c-0.09-0.11-0.18-0.22-0.29-0.31c-0.18-0.2-0.36-0.38-0.54-0.58c-0.25-0.25-0.49-0.53-0.76-0.78
						c-0.25-0.25-0.51-0.51-0.78-0.76c-0.31-0.29-0.62-0.58-0.93-0.87c-0.07-0.05-0.13-0.11-0.2-0.16c-0.02,0-0.02-0.02-0.02-0.02
						c-0.11-0.09-0.2-0.18-0.31-0.27c-0.31-0.29-0.63-0.56-0.96-0.82c-0.27-0.24-0.56-0.45-0.83-0.67
						c-0.29-0.22-0.56-0.45-0.85-0.65c-0.58-0.44-1.16-0.85-1.76-1.27c-0.54-0.36-1.09-0.71-1.65-1.05c-0.98-0.6-2-1.16-3.03-1.71
						c-0.33-0.16-0.65-0.33-0.98-0.49s-0.65-0.31-0.98-0.45s-0.67-0.29-1.02-0.44c-0.33-0.15-0.67-0.27-1.02-0.42
						c-0.34-0.15-0.69-0.27-1.03-0.4c-0.34-0.13-0.69-0.25-1.03-0.36c-0.69-0.24-1.4-0.45-2.1-0.65c-0.36-0.11-0.71-0.2-1.07-0.29
						c-0.36-0.09-0.71-0.18-1.09-0.27c-1.03-0.24-2.07-0.42-3.12-0.58c-0.29-0.05-0.58-0.09-0.87-0.13
						c-0.15-0.02-0.29-0.05-0.44-0.07c-0.27-0.04-0.56-0.07-0.85-0.11c-0.11-0.02-0.2-0.02-0.31-0.02
						c-0.38-0.04-0.76-0.07-1.14-0.11c-0.38-0.04-0.76-0.05-1.14-0.07c-0.38-0.02-0.76-0.04-1.12-0.04
						c-0.38-0.02-0.78-0.02-1.16-0.02h-0.02c-0.83,0-1.65,0.02-2.47,0.07c-0.27,0.02-0.53,0.02-0.8,0.05
						c-0.83,0.05-1.65,0.15-2.47,0.24c-2.25,0.29-4.44,0.74-6.57,1.34c-1.78,0.51-3.52,1.12-5.19,1.83
						c-3.03,1.27-5.9,2.88-8.53,4.77c-0.58,0.42-1.16,0.85-1.74,1.31c-0.27,0.22-0.56,0.45-0.83,0.67c-1.4,1.14-2.72,2.38-3.95,3.68
						c-0.2,0.2-0.4,0.42-0.58,0.62c-0.11,0.11-0.22,0.24-0.31,0.34c-0.05,0.05-0.09,0.09-0.13,0.15c-0.11,0.11-0.2,0.22-0.29,0.33
						c-0.27,0.31-0.56,0.63-0.82,0.96c-0.18,0.22-0.36,0.44-0.53,0.65c-0.02,0.02-0.02,0.02-0.02,0.04c-0.2,0.25-0.42,0.51-0.6,0.78
						c-0.15,0.18-0.27,0.34-0.4,0.53c-0.2,0.27-0.42,0.56-0.6,0.83c-0.25,0.36-0.51,0.74-0.76,1.12c-0.25,0.38-0.49,0.76-0.73,1.14
						c-0.11,0.16-0.2,0.33-0.29,0.49c-0.25,0.42-0.49,0.83-0.73,1.27c-0.13,0.24-0.25,0.47-0.38,0.71c-0.47,0.89-0.93,1.8-1.32,2.72
						c-0.09,0.2-0.18,0.4-0.25,0.6c-0.29,0.65-0.54,1.32-0.8,2c-0.15,0.38-0.27,0.76-0.42,1.16c-0.15,0.4-0.27,0.78-0.38,1.18
						c-0.25,0.8-0.47,1.6-0.67,2.41c-0.09,0.34-0.16,0.69-0.24,1.03c-0.05,0.22-0.11,0.45-0.15,0.67c-0.04,0.2-0.07,0.38-0.11,0.56
						c-0.07,0.31-0.13,0.62-0.18,0.94c-0.04,0.22-0.07,0.44-0.11,0.65c-0.04,0.18-0.05,0.36-0.07,0.54
						c-0.02,0.04-0.02,0.07-0.02,0.11c-0.02,0.13-0.04,0.27-0.05,0.4c0,0.02,0,0.02,0,0.04c-0.02,0.15-0.04,0.31-0.05,0.47
						c-0.02,0.05-0.02,0.11-0.02,0.15c-0.02,0.2-0.05,0.38-0.07,0.58c0,0.02,0,0.02,0,0.02c-0.02,0.18-0.04,0.36-0.05,0.54
						c-0.04,0.33-0.05,0.65-0.07,0.98c-0.02,0.33-0.05,0.63-0.07,0.96c-0.02,0.38-0.04,0.76-0.04,1.16C11,65.81,11,66.21,11,66.59
						c0,0.38,0,0.78,0.02,1.16c0.02,0.38,0.02,0.76,0.04,1.14c0.02,0.36,0.04,0.73,0.07,1.09c0,0.02,0,0.05,0,0.07
						c0.02,0.27,0.04,0.54,0.07,0.8c0.04,0.42,0.09,0.85,0.15,1.27c0.02,0.16,0.04,0.33,0.07,0.49c0.02,0.16,0.04,0.33,0.07,0.49
						c0.04,0.24,0.07,0.47,0.11,0.71c0,0.02,0,0.02,0,0.04c0.02,0.11,0.02,0.2,0.05,0.29c0.05,0.34,0.11,0.67,0.18,1.02
						c0.05,0.27,0.11,0.53,0.15,0.78c0.44,2.05,1,4.04,1.71,5.99c0.07,0.24,0.16,0.45,0.25,0.67c0,0.02,0,0.02,0.02,0.04
						c0.05,0.15,0.11,0.29,0.16,0.45c0.15,0.36,0.29,0.73,0.45,1.11c0.13,0.31,0.25,0.62,0.4,0.91c0.13,0.27,0.25,0.54,0.38,0.82
						c0.13,0.27,0.25,0.53,0.38,0.78c0.13,0.25,0.25,0.51,0.4,0.76c0.15,0.29,0.31,0.6,0.47,0.89c0.07,0.15,0.16,0.29,0.24,0.44
						c0.09,0.15,0.16,0.29,0.25,0.44c0.16,0.27,0.33,0.54,0.49,0.82c0.16,0.27,0.33,0.54,0.49,0.8c0.16,0.24,0.33,0.49,0.49,0.73
						c0.04,0.07,0.09,0.13,0.13,0.2c0.38,0.54,0.76,1.11,1.16,1.63c0.2,0.27,0.4,0.53,0.6,0.8c0.11,0.13,0.2,0.25,0.31,0.4
						c0.11,0.13,0.2,0.25,0.31,0.38c0.18,0.22,0.36,0.44,0.54,0.65c0.05,0.07,0.13,0.15,0.2,0.24c0.18,0.2,0.34,0.38,0.51,0.58
						c0.02,0.02,0.02,0.04,0.05,0.05l0,0l0.02,0.02c0.15,0.15,0.27,0.31,0.42,0.45c0.71,0.78,1.47,1.54,2.23,2.27
						c0.18,0.18,0.36,0.34,0.54,0.49c0.11,0.11,0.22,0.2,0.33,0.29c0.18,0.16,0.34,0.33,0.53,0.47c0.44,0.38,0.89,0.76,1.32,1.11
						c0.24,0.2,0.49,0.4,0.74,0.58c0.24,0.18,0.45,0.36,0.69,0.53c0.22,0.16,0.44,0.33,0.67,0.49c0.02,0.02,0.05,0.04,0.07,0.05
						c0.36,0.25,0.73,0.51,1.11,0.76c0,0,0,0,0.02,0c0.45,0.31,0.91,0.6,1.36,0.87c0.24,0.15,0.45,0.27,0.69,0.42
						c0.24,0.15,0.45,0.27,0.69,0.4c0.31,0.18,0.62,0.34,0.94,0.53c0.89,0.49,1.81,0.93,2.74,1.36c0.33,0.15,0.67,0.29,1,0.44
						c0.02,0.02,0.04,0.02,0.05,0.02c0.33,0.13,0.63,0.27,0.96,0.38c0.34,0.15,0.69,0.27,1.03,0.4c0.27,0.11,0.56,0.2,0.85,0.29
						c0.42,0.15,0.83,0.27,1.23,0.42c0.31,0.09,0.6,0.18,0.91,0.27c0.36,0.11,0.73,0.2,1.11,0.31c0.33,0.09,0.63,0.16,0.96,0.24
						c0.04,0,0.07,0.02,0.11,0.02c0.34,0.07,0.69,0.15,1.05,0.24c0.18,0.04,0.36,0.07,0.54,0.11c0.29,0.05,0.56,0.11,0.85,0.15
						c0.31,0.05,0.62,0.11,0.93,0.16c0.02,0,0.05,0.02,0.07,0.02c0.15,0.02,0.29,0.05,0.44,0.07c0.15,0.02,0.29,0.04,0.44,0.05
						c0.4,0.05,0.82,0.11,1.22,0.15c0.42,0.04,0.82,0.07,1.23,0.11s0.83,0.05,1.23,0.07c0.42,0.02,0.83,0.04,1.25,0.04
						c0.33,0.02,0.67,0.02,1,0.02H85.9v29.91c0,0.29,0,0.58,0.02,0.87c0,0.15,0,0.31,0.02,0.47c0,0.02,0,0.05,0,0.09
						c0,0.18,0.02,0.36,0.02,0.53c0,0.05,0,0.09,0,0.15c0,0.15,0.02,0.29,0.02,0.44c0,0.02,0,0.04,0,0.07
						c0.02,0.29,0.04,0.58,0.05,0.89c0.04,0.42,0.07,0.83,0.11,1.27c0.02,0.18,0.04,0.38,0.05,0.56l0.02,0.13
						c0.02,0.18,0.04,0.34,0.07,0.53c0.07,0.58,0.16,1.14,0.25,1.71c0.05,0.25,0.09,0.53,0.15,0.78c0.05,0.27,0.11,0.54,0.16,0.82
						c0.05,0.29,0.13,0.58,0.18,0.85c0.04,0.18,0.09,0.38,0.13,0.56c0.05,0.24,0.11,0.49,0.18,0.73c0.05,0.2,0.11,0.42,0.16,0.62
						c0.04,0.15,0.09,0.31,0.13,0.45c0.07,0.27,0.15,0.53,0.24,0.8c0.07,0.2,0.13,0.4,0.2,0.6c0.02,0.07,0.04,0.13,0.05,0.18
						c0.04,0.11,0.07,0.22,0.11,0.33c0.02,0.04,0.02,0.07,0.04,0.13c0.04,0.11,0.07,0.24,0.11,0.34c0.07,0.18,0.15,0.36,0.2,0.56
						c0.02,0.02,0.02,0.05,0.04,0.09c0.11,0.29,0.22,0.58,0.33,0.87c0.07,0.18,0.15,0.36,0.22,0.56c0.13,0.33,0.25,0.63,0.4,0.94
						c0.2,0.47,0.42,0.94,0.63,1.41c0.62,1.31,1.29,2.58,2.03,3.81c0.11,0.18,0.22,0.34,0.33,0.53c0.27,0.45,0.58,0.91,0.87,1.36
						l0,0c0.15,0.22,0.29,0.44,0.44,0.65c0.15,0.22,0.29,0.44,0.45,0.63c0.31,0.44,0.62,0.85,0.94,1.27
						c0.16,0.2,0.33,0.42,0.49,0.62c0.49,0.62,1,1.22,1.52,1.8l0,0c0.29,0.33,0.58,0.63,0.87,0.96c0.29,0.33,0.6,0.63,0.91,0.94
						c0.31,0.31,0.62,0.62,0.94,0.91c0.31,0.29,0.62,0.58,0.93,0.85l0,0c0.02,0,0.02,0.02,0.02,0.02c0.25,0.22,0.49,0.44,0.76,0.65
						c0.51,0.44,1.02,0.85,1.54,1.27c0.78,0.62,1.6,1.2,2.43,1.76c0.27,0.18,0.56,0.36,0.83,0.54c1.4,0.91,2.87,1.74,4.37,2.49
						c0.91,0.45,1.81,0.87,2.74,1.25c0.02,0.02,0.04,0.02,0.05,0.02c0.31,0.13,0.6,0.24,0.91,0.36c0.63,0.24,1.27,0.47,1.92,0.69
						c0.63,0.22,1.29,0.42,1.96,0.62c0.33,0.09,0.65,0.18,1,0.27c0.33,0.09,0.67,0.16,1,0.25c0.34,0.07,0.67,0.15,1.02,0.24
						c0.33,0.07,0.67,0.15,1.02,0.2c0.34,0.07,0.69,0.13,1.03,0.18c0.34,0.05,0.69,0.11,1.03,0.16s0.69,0.09,1.05,0.15
						c0.69,0.07,1.4,0.15,2.1,0.2c0.36,0.02,0.71,0.04,1.05,0.07c0.36,0.02,0.71,0.02,1.07,0.04c0.36,0,0.71,0.02,1.07,0.02
						c0.42,0,0.83,0,1.25-0.02c0.4-0.02,0.8-0.02,1.2-0.05c0.38-0.02,0.76-0.05,1.14-0.07c0.33-0.02,0.67-0.05,1-0.09
						c0.22-0.02,0.42-0.04,0.63-0.07c0.22-0.02,0.44-0.05,0.63-0.07c0.4-0.05,0.8-0.11,1.2-0.18c0.11-0.02,0.2-0.04,0.31-0.05
						c0.2-0.04,0.4-0.07,0.58-0.11c0.27-0.04,0.53-0.09,0.8-0.15c0.22-0.04,0.44-0.09,0.63-0.13c0.11-0.02,0.24-0.04,0.34-0.07
						c0.11-0.02,0.2-0.05,0.31-0.07c0.09-0.02,0.18-0.04,0.27-0.07c0.18-0.04,0.38-0.09,0.56-0.13c0.02,0,0.04,0,0.04-0.02
						c0.09-0.02,0.2-0.05,0.29-0.07c0.02,0,0.02-0.02,0.04-0.02c0.27-0.07,0.54-0.15,0.82-0.22c0.07-0.02,0.15-0.04,0.24-0.07
						c0.31-0.09,0.62-0.18,0.91-0.27c0.33-0.09,0.63-0.2,0.96-0.31c0.24-0.07,0.45-0.16,0.69-0.24c0.05-0.02,0.11-0.04,0.18-0.07
						c0.4-0.15,0.8-0.29,1.18-0.44c0.44-0.16,0.85-0.34,1.27-0.53c0.34-0.15,0.67-0.29,1-0.44c0.2-0.07,0.38-0.16,0.56-0.25
						c0.24-0.11,0.45-0.2,0.67-0.33c0.05-0.02,0.09-0.04,0.15-0.07c0.33-0.16,0.63-0.33,0.96-0.49c0.34-0.18,0.69-0.36,1.03-0.56
						c0.67-0.36,1.31-0.74,1.96-1.14c0.4-0.24,0.78-0.49,1.16-0.74c0.27-0.2,0.56-0.38,0.83-0.58c0.27-0.2,0.56-0.4,0.83-0.62
						c0.34-0.25,0.69-0.51,1.02-0.78c0.27-0.22,0.54-0.44,0.82-0.67c0.04-0.02,0.07-0.05,0.11-0.09c0.2-0.16,0.42-0.34,0.62-0.53
						c0.62-0.53,1.22-1.07,1.8-1.63c0.07-0.07,0.15-0.13,0.2-0.2c0.25-0.25,0.51-0.51,0.76-0.76c0.27-0.27,0.54-0.56,0.8-0.83
						c0.27-0.29,0.53-0.56,0.78-0.85l0,0c0.22-0.25,0.44-0.49,0.65-0.76c0.22-0.25,0.44-0.51,0.63-0.76
						c0.22-0.25,0.42-0.53,0.63-0.78c0.2-0.25,0.4-0.53,0.6-0.8c0.2-0.27,0.4-0.54,0.58-0.8c0.33-0.47,0.65-0.94,0.96-1.41
						c0.07-0.11,0.15-0.24,0.24-0.34c0.34-0.53,0.67-1.05,0.98-1.61c0.16-0.27,0.33-0.56,0.47-0.83c0.02-0.02,0.02-0.04,0.04-0.05
						c0.16-0.29,0.33-0.58,0.47-0.87c0.13-0.24,0.25-0.47,0.36-0.73c0.09-0.16,0.16-0.33,0.25-0.51c0.13-0.27,0.25-0.53,0.38-0.8
						c0.11-0.22,0.2-0.44,0.29-0.65c0.11-0.25,0.24-0.51,0.34-0.78c0.13-0.31,0.25-0.62,0.38-0.93c0.09-0.22,0.16-0.42,0.24-0.63
						c0.67-1.8,1.23-3.63,1.69-5.51c0.05-0.22,0.11-0.44,0.15-0.65c0.04-0.13,0.05-0.25,0.09-0.38c0.05-0.24,0.11-0.47,0.15-0.73
						c0.09-0.47,0.18-0.94,0.25-1.41c0.04-0.22,0.07-0.45,0.11-0.67c0.02-0.11,0.04-0.24,0.05-0.36c0.04-0.2,0.05-0.4,0.07-0.62
						c0.04-0.31,0.07-0.63,0.11-0.93c0.04-0.38,0.07-0.76,0.11-1.14c0.04-0.38,0.05-0.76,0.07-1.14s0.04-0.76,0.04-1.16
						c0.02-0.38,0.02-0.78,0.02-1.16S175.77,140.65,175.75,140.25z M85.79,96.43H55.88c-16.52,0-29.91-13.39-29.91-29.91
						c0-13.17,8.51-24.34,20.32-28.35c0.93-0.31,1.85-0.58,2.81-0.8c0.02,0,0.02,0,0.02,0c1.22-0.27,2.43-0.49,3.7-0.62
						c1-0.11,2.01-0.15,3.03-0.15h0.02c1.07,0,2.14,0.05,3.19,0.16c0.09,0,0.16,0.02,0.25,0.02c0.07,0.02,0.15,0.02,0.2,0.02
						c0.09,0.02,0.18,0.02,0.27,0.04c0.07,0.02,0.13,0.02,0.2,0.02c0.13,0.02,0.25,0.04,0.38,0.05c0.27,0.04,0.53,0.07,0.78,0.13
						c0.05,0,0.09,0.02,0.13,0.02c0.45,0.07,0.91,0.18,1.36,0.27c0.49,0.11,0.96,0.24,1.43,0.36c0.15,0.04,0.29,0.09,0.44,0.13
						c0.15,0.04,0.29,0.09,0.44,0.13c0.42,0.13,0.82,0.27,1.22,0.42c0.15,0.05,0.29,0.11,0.44,0.15c0.09,0.04,0.16,0.07,0.25,0.11
						c0.25,0.09,0.51,0.2,0.76,0.31c0.31,0.13,0.62,0.27,0.93,0.42c0.16,0.07,0.31,0.15,0.47,0.22c0.24,0.11,0.47,0.24,0.69,0.34
						c0.73,0.38,1.45,0.8,2.14,1.23c0.13,0.07,0.25,0.16,0.38,0.24c0.29,0.18,0.58,0.38,0.85,0.58c0.24,0.16,0.49,0.34,0.73,0.53
						c0.31,0.24,0.62,0.47,0.91,0.71c0.22,0.16,0.42,0.34,0.62,0.53c0.15,0.11,0.27,0.24,0.42,0.36c0.15,0.13,0.29,0.25,0.44,0.4
						c0.18,0.16,0.36,0.33,0.53,0.49c0.25,0.24,0.49,0.49,0.74,0.74c0.07,0.07,0.15,0.15,0.2,0.22c0.2,0.22,0.4,0.44,0.6,0.65
						c0.16,0.18,0.33,0.36,0.49,0.56c0.18,0.2,0.36,0.42,0.53,0.63c0.15,0.18,0.27,0.34,0.42,0.53c0.15,0.2,0.29,0.4,0.45,0.6
						c0.07,0.11,0.15,0.2,0.22,0.31c0.22,0.31,0.42,0.62,0.63,0.93c0.11,0.16,0.22,0.33,0.33,0.49c0.15,0.24,0.29,0.49,0.45,0.74
						c0.15,0.24,0.27,0.49,0.42,0.74c0.02,0.04,0.05,0.09,0.07,0.15c0.09,0.15,0.16,0.31,0.24,0.45c0.04,0.05,0.05,0.11,0.09,0.16
						c0.13,0.25,0.25,0.51,0.38,0.78c0.13,0.25,0.24,0.53,0.36,0.78c0.11,0.25,0.24,0.53,0.33,0.8c0.05,0.13,0.11,0.27,0.16,0.4
						c0.05,0.15,0.11,0.27,0.15,0.4c0.11,0.27,0.2,0.54,0.29,0.82c0.05,0.15,0.09,0.29,0.15,0.44c0.07,0.24,0.15,0.45,0.22,0.69
						c0.07,0.27,0.15,0.53,0.22,0.8s0.15,0.53,0.2,0.8c0.02,0.11,0.05,0.24,0.07,0.34c0.09,0.38,0.16,0.78,0.24,1.16
						c0.04,0.2,0.07,0.4,0.11,0.58c0.04,0.24,0.07,0.45,0.11,0.67c0.02,0.13,0.04,0.27,0.05,0.4c0.02,0.05,0.02,0.11,0.02,0.16
						c0.02,0.16,0.04,0.33,0.05,0.47c0.02,0.2,0.04,0.38,0.05,0.58c0.02,0.18,0.02,0.34,0.04,0.53c0.02,0.27,0.04,0.54,0.04,0.83
						c0,0.07,0.02,0.15,0.02,0.24v0.04c0.02,0.22,0.02,0.45,0.02,0.67v30.18H85.79z M159.92,148.18c-0.07,0.36-0.18,0.73-0.27,1.09
						c-0.09,0.36-0.2,0.71-0.31,1.05c-0.07,0.24-0.15,0.47-0.24,0.69c-0.24,0.69-0.49,1.38-0.78,2.05c-0.09,0.22-0.2,0.45-0.29,0.67
						c-0.2,0.44-0.42,0.87-0.63,1.31c-0.22,0.44-0.45,0.85-0.69,1.27c-0.6,1.05-1.25,2.05-1.98,3.01c-0.44,0.58-0.89,1.14-1.36,1.69
						c-0.31,0.36-0.63,0.71-0.96,1.05c-0.16,0.18-0.33,0.34-0.51,0.51c-1.18,1.18-2.49,2.29-3.86,3.25
						c-2.34,1.67-4.93,2.99-7.71,3.94c-2.09,0.71-4.28,1.18-6.53,1.41c-1,0.11-2.03,0.15-3.05,0.15c-16.47,0-29.8-13.28-29.91-29.73
						c0,0.07,0,0.13,0,0.2v-30.29h29.91c1.03,0,2.05,0.05,3.05,0.15c0.49,0.05,0.98,0.11,1.47,0.2c1.49,0.22,2.94,0.56,4.34,1
						c0.02,0,0.02,0.02,0.02,0c4.68,1.45,8.87,4.03,12.26,7.42c0.16,0.16,0.34,0.34,0.51,0.51c0.33,0.34,0.65,0.71,0.96,1.05
						c0.47,0.54,0.93,1.11,1.36,1.67c0.73,0.96,1.38,1.96,1.98,3.01c0.24,0.42,0.47,0.83,0.69,1.27c0.22,0.44,0.44,0.87,0.63,1.31
						c0.11,0.22,0.2,0.44,0.29,0.67c0.29,0.67,0.54,1.36,0.78,2.05c0.07,0.24,0.16,0.45,0.24,0.69c0.11,0.34,0.22,0.71,0.31,1.05
						c0.09,0.36,0.2,0.73,0.27,1.09c0.51,2.18,0.76,4.43,0.76,6.75C160.66,143.68,160.43,146,159.92,148.18z"/>
				</g>
				<path d="M93.33,166.35l-0.02,0.02c-0.15,0.22-0.27,0.42-0.42,0.63c-0.29,0.44-0.6,0.85-0.93,1.27
					c-0.15,0.22-0.31,0.42-0.47,0.63c-0.16,0.2-0.33,0.42-0.49,0.62c-0.16,0.2-0.33,0.42-0.49,0.62c-0.33,0.4-0.67,0.8-1.03,1.2l0,0
					c-0.05,0.05-0.11,0.11-0.15,0.18c-0.05,0.05-0.11,0.13-0.16,0.18c-0.38,0.42-0.76,0.83-1.16,1.23
					c-0.15,0.15-0.31,0.31-0.45,0.45l-0.02,0.02l-0.11,0.11c-0.42,0.4-0.82,0.78-1.23,1.16c-0.05,0.05-0.13,0.11-0.18,0.16
					c-0.05,0.05-0.13,0.11-0.18,0.16c-0.02,0-0.02,0.02-0.02,0.02c-0.24,0.22-0.49,0.42-0.73,0.63c-0.25,0.22-0.51,0.44-0.76,0.63
					c-0.25,0.22-0.53,0.42-0.78,0.63c-0.25,0.2-0.53,0.4-0.8,0.6c-0.27,0.2-0.54,0.4-0.8,0.58c-0.25,0.18-0.54,0.38-0.82,0.56
					c-0.27,0.2-0.56,0.38-0.83,0.56c-0.27,0.18-0.56,0.36-0.85,0.53c-0.29,0.16-0.58,0.34-0.85,0.51c-0.29,0.16-0.58,0.34-0.87,0.49
					c-0.29,0.16-0.58,0.33-0.89,0.47c-0.29,0.16-0.6,0.31-0.89,0.45c-0.31,0.15-0.6,0.29-0.91,0.44c-0.2,0.09-0.4,0.18-0.58,0.27
					c-0.22,0.09-0.42,0.2-0.63,0.29c-0.2,0.09-0.42,0.18-0.63,0.27c-0.31,0.13-0.63,0.25-0.94,0.38c-0.24,0.09-0.49,0.18-0.73,0.27
					c-0.2,0.07-0.38,0.15-0.58,0.22c-0.11,0.04-0.22,0.07-0.33,0.11l0,0c-0.09,0.02-0.16,0.05-0.25,0.09
					c-0.02,0-0.02,0.02-0.04,0.02c-0.02,0.02-0.04,0.02-0.05,0.02c-0.63,0.2-1.25,0.4-1.9,0.58c-0.33,0.09-0.65,0.18-0.98,0.27
					c-0.33,0.09-0.67,0.16-1,0.25c-0.33,0.07-0.67,0.15-1.02,0.24c-0.04,0-0.05,0.02-0.09,0.02c-0.05,0.02-0.11,0.02-0.16,0.04
					c-0.25,0.05-0.51,0.11-0.76,0.15c-0.11,0.02-0.22,0.04-0.33,0.05c-0.24,0.04-0.45,0.09-0.69,0.13
					c-0.34,0.07-0.71,0.11-1.05,0.16c-0.34,0.05-0.69,0.09-1.03,0.15c-0.11,0.02-0.24,0.02-0.34,0.04
					c-0.24,0.02-0.45,0.05-0.69,0.07c-0.15,0.02-0.27,0.02-0.42,0.04c-0.22,0.02-0.42,0.04-0.63,0.05
					c-0.36,0.02-0.71,0.04-1.05,0.07c-0.36,0.02-0.71,0.02-1.07,0.04c-0.36,0-0.71,0.02-1.07,0.02H32.15l4.41-4.41l10.67-10.67l0,0
					l1.02-1.02c2.47,0.67,5.06,1.02,7.75,1.02l0,0c16.52,0,29.91-13.39,29.91-29.91c0,0.29,0,0.58,0.02,0.87
					c0,0.15,0,0.31,0.02,0.47c0,0.02,0,0.05,0,0.09c0,0.18,0.02,0.36,0.02,0.53c0,0.05,0,0.09,0,0.15c0,0.15,0.02,0.29,0.02,0.44
					c0,0.02,0,0.04,0,0.07c0.02,0.29,0.04,0.58,0.05,0.89c0.04,0.42,0.07,0.83,0.11,1.27c0.02,0.18,0.04,0.38,0.05,0.56
					c0,0.04,0.02,0.09,0.02,0.13c0.02,0.18,0.04,0.34,0.07,0.53c0.07,0.58,0.16,1.14,0.25,1.71c0.05,0.25,0.09,0.53,0.15,0.78
					c0.05,0.27,0.11,0.54,0.16,0.82c0.05,0.29,0.13,0.58,0.18,0.85c0.04,0.18,0.09,0.38,0.13,0.56c0.05,0.24,0.11,0.49,0.18,0.73
					c0.05,0.2,0.11,0.42,0.16,0.62c0.04,0.15,0.09,0.31,0.13,0.45c0.07,0.27,0.15,0.53,0.24,0.8c0.07,0.2,0.13,0.4,0.2,0.6
					c0.02,0.07,0.04,0.13,0.05,0.18c0.04,0.11,0.07,0.22,0.11,0.33c0.02,0.04,0.02,0.07,0.04,0.13c0.04,0.11,0.07,0.24,0.11,0.34
					c0.07,0.18,0.15,0.36,0.2,0.56c0.02,0.02,0.02,0.05,0.04,0.09c0.11,0.29,0.22,0.58,0.33,0.87c0.07,0.18,0.15,0.36,0.22,0.56
					c0.13,0.33,0.25,0.63,0.4,0.94c0.2,0.47,0.42,0.94,0.63,1.41c0.62,1.31,1.29,2.58,2.03,3.81c0.11,0.18,0.22,0.34,0.33,0.53
					C92.73,165.46,93.02,165.92,93.33,166.35z"/>
				<g>
					<g>
						<path d="M55.88,126.46c-8.27,0-14.96,6.69-14.96,14.96s6.69,14.96,14.96,14.96h0.02c0.49,0,0.98-0.02,1.47-0.07
							c0.02,0,0.04,0,0.04,0c0.25-0.02,0.51-0.05,0.74-0.09c0.22-0.04,0.45-0.07,0.67-0.11c0.15-0.02,0.29-0.05,0.44-0.09
							c0.13-0.02,0.24-0.05,0.36-0.09c0.2-0.05,0.42-0.11,0.62-0.16c0.18-0.05,0.38-0.11,0.56-0.18c0.05-0.02,0.09-0.02,0.15-0.05
							c0.13-0.05,0.27-0.09,0.4-0.15c0.33-0.11,0.63-0.25,0.94-0.4c0.11-0.05,0.22-0.11,0.33-0.16c0.13-0.05,0.25-0.13,0.38-0.2
							c0.18-0.09,0.34-0.2,0.53-0.29c0.15-0.09,0.27-0.16,0.42-0.25c0.09-0.05,0.18-0.11,0.27-0.16c0.16-0.11,0.33-0.22,0.47-0.33
							c0.2-0.15,0.38-0.27,0.56-0.42c0.18-0.15,0.36-0.29,0.54-0.45c0.18-0.15,0.34-0.31,0.51-0.47c0.02,0,0.02-0.02,0.02-0.02
							l0.02-0.02l0.05-0.05c0.07-0.07,0.13-0.13,0.2-0.2c0.02-0.02,0.04-0.04,0.05-0.05c0-0.02,0.02-0.02,0.02-0.02
							c0.02,0,0.02-0.02,0.02-0.02c0.16-0.16,0.31-0.33,0.47-0.51c0.15-0.16,0.29-0.34,0.44-0.53c0.15-0.18,0.29-0.36,0.42-0.54
							c0.15-0.18,0.27-0.38,0.4-0.56c0.13-0.2,0.25-0.38,0.36-0.58c0.13-0.22,0.25-0.44,0.36-0.67c0.09-0.18,0.2-0.38,0.27-0.56
							c0.11-0.22,0.2-0.44,0.29-0.65c0.18-0.42,0.34-0.87,0.47-1.31c0.15-0.45,0.25-0.91,0.36-1.38c0.05-0.24,0.09-0.47,0.13-0.71
							c0.02-0.11,0.04-0.22,0.05-0.33c0.02-0.16,0.05-0.34,0.07-0.51c0.02-0.22,0.04-0.44,0.05-0.65c0.02-0.24,0.02-0.45,0.02-0.69
							v-15.15H55.88V126.46z M70.8,141.61v-0.38c0,0.07,0,0.13,0,0.2C70.8,141.5,70.8,141.56,70.8,141.61z"/>
					</g>
				</g>
				<path d="M145.74,66.52c0,1.81-0.33,3.54-0.91,5.13c-0.15,0.36-0.29,0.74-0.45,1.09c-0.24,0.53-0.51,1.03-0.8,1.52
					c-0.25,0.42-0.51,0.8-0.8,1.18c-1.02,1.36-2.23,2.52-3.65,3.46c-0.4,0.27-0.8,0.51-1.23,0.74c0,0,0,0-0.02,0
					c-0.4,0.22-0.82,0.42-1.23,0.6c-0.07,0.04-0.15,0.07-0.2,0.09c-0.4,0.16-0.82,0.33-1.23,0.45c-0.51,0.16-1.03,0.29-1.56,0.4
					c-0.44,0.09-0.89,0.16-1.36,0.2c-0.49,0.05-1.02,0.07-1.52,0.07h-14.96V66.5c0-0.16,0-0.34,0.02-0.51v-0.11
					c0.02-0.18,0.02-0.36,0.04-0.54c0.02-0.18,0.04-0.36,0.05-0.53c0.02-0.2,0.05-0.4,0.07-0.6c0.07-0.47,0.16-0.93,0.27-1.38
					c0.11-0.45,0.24-0.89,0.4-1.32c0.11-0.29,0.22-0.58,0.33-0.85c0.2-0.45,0.4-0.89,0.63-1.31c0.24-0.42,0.49-0.83,0.74-1.23
					c0.15-0.2,0.27-0.4,0.42-0.58c0.29-0.38,0.6-0.76,0.91-1.11c0.16-0.18,0.33-0.34,0.49-0.53c2.7-2.7,6.44-4.39,10.57-4.39
					c4.9,0,9.25,2.36,11.99,6c0.29,0.38,0.54,0.78,0.8,1.2c0.25,0.42,0.49,0.83,0.69,1.27c0.2,0.44,0.4,0.89,0.56,1.34
					c0.27,0.73,0.47,1.47,0.63,2.23c0.09,0.42,0.15,0.85,0.2,1.29C145.7,65.43,145.74,65.97,145.74,66.52z"/>
			</g>
		</g>
	</g>
</g>
</svg>
